<?xml version="1.0" encoding="UTF-8"?>
<svg version="1.1" xmlns="http://www.w3.org/2000/svg" width="482" height="482">
<path d="M0 0 C0.87255053 0.00291284 1.74510105 0.00582568 2.6440925 0.00882679 C4.02357306 0.00754515 4.02357306 0.00754515 5.43092191 0.00623763 C8.53723064 0.00458 11.64348631 0.01010879 14.74979013 0.01555592 C16.9666582 0.01583776 19.18352636 0.01568013 21.40039438 0.01511341 C27.43940687 0.0148253 33.47839969 0.02072421 39.5174076 0.02768737 C45.82085519 0.03391867 52.12430319 0.03452453 58.42775339 0.03571278 C69.01443182 0.03847247 79.60110376 0.04472799 90.18777841 0.05364186 C101.09402804 0.06281528 112.00027571 0.06989645 122.90652841 0.07414967 C123.57833969 0.07441239 124.25015098 0.07467512 124.94232018 0.0749458 C128.31246556 0.0762508 131.68261096 0.07751452 135.05275637 0.0787577 C163.02916543 0.0892236 191.00556575 0.10702465 218.98196787 0.12908131 C218.98196787 6.06908131 218.98196787 12.00908131 218.98196787 18.12908131 C213.70196787 18.12908131 208.42196787 18.12908131 202.98196787 18.12908131 C202.98196787 28.02908131 202.98196787 37.92908131 202.98196787 48.12908131 C208.26196787 48.12908131 213.54196787 48.12908131 218.98196787 48.12908131 C218.98196787 48.78908131 218.98196787 49.44908131 218.98196787 50.12908131 C197.86196787 50.12908131 176.74196787 50.12908131 154.98196787 50.12908131 C154.98196787 60.02908131 154.98196787 69.92908131 154.98196787 80.12908131 C160.26196787 80.12908131 165.54196787 80.12908131 170.98196787 80.12908131 C170.98196787 80.78908131 170.98196787 81.44908131 170.98196787 82.12908131 C165.04196787 82.12908131 159.10196787 82.12908131 152.98196787 82.12908131 C152.98196787 76.84908131 152.98196787 71.56908131 152.98196787 66.12908131 C147.70196787 66.12908131 142.42196787 66.12908131 136.98196787 66.12908131 C136.98196787 65.46908131 136.98196787 64.80908131 136.98196787 64.12908131 C142.26196787 64.12908131 147.54196787 64.12908131 152.98196787 64.12908131 C152.98196787 59.50908131 152.98196787 54.88908131 152.98196787 50.12908131 C147.70196787 50.12908131 142.42196787 50.12908131 136.98196787 50.12908131 C136.98196787 44.84908131 136.98196787 39.56908131 136.98196787 34.12908131 C131.70196787 34.12908131 126.42196787 34.12908131 120.98196787 34.12908131 C120.98196787 33.46908131 120.98196787 32.80908131 120.98196787 32.12908131 C126.26196787 32.12908131 131.54196787 32.12908131 136.98196787 32.12908131 C136.98196787 26.84908131 136.98196787 21.56908131 136.98196787 16.12908131 C137.64196787 16.12908131 138.30196787 16.12908131 138.98196787 16.12908131 C139.31196787 26.35908131 139.64196787 36.58908131 139.98196787 47.12908131 C154.83196787 47.45908131 169.68196787 47.78908131 184.98196787 48.12908131 C184.98196787 42.84908131 184.98196787 37.56908131 184.98196787 32.12908131 C185.64196787 32.12908131 186.30196787 32.12908131 186.98196787 32.12908131 C186.98196787 37.40908131 186.98196787 42.68908131 186.98196787 48.12908131 C191.60196787 48.12908131 196.22196787 48.12908131 200.98196787 48.12908131 C200.98196787 38.22908131 200.98196787 28.32908131 200.98196787 18.12908131 C190.42196787 18.12908131 179.86196787 18.12908131 168.98196787 18.12908131 C168.98196787 17.46908131 168.98196787 16.80908131 168.98196787 16.12908131 C184.82196787 16.12908131 200.66196787 16.12908131 216.98196787 16.12908131 C216.98196787 11.50908131 216.98196787 6.88908131 216.98196787 2.12908131 C196.52196787 2.12908131 176.06196787 2.12908131 154.98196787 2.12908131 C154.98196787 12.02908131 154.98196787 21.92908131 154.98196787 32.12908131 C160.26196787 32.12908131 165.54196787 32.12908131 170.98196787 32.12908131 C170.98196787 32.78908131 170.98196787 33.44908131 170.98196787 34.12908131 C165.04196787 34.12908131 159.10196787 34.12908131 152.98196787 34.12908131 C152.98196787 23.56908131 152.98196787 13.00908131 152.98196787 2.12908131 C143.08196787 2.12908131 133.18196787 2.12908131 122.98196787 2.12908131 C122.98196787 7.40908131 122.98196787 12.68908131 122.98196787 18.12908131 C117.70196787 18.12908131 112.42196787 18.12908131 106.98196787 18.12908131 C106.98196787 28.02908131 106.98196787 37.92908131 106.98196787 48.12908131 C112.26196787 48.12908131 117.54196787 48.12908131 122.98196787 48.12908131 C122.98196787 48.78908131 122.98196787 49.44908131 122.98196787 50.12908131 C112.42196787 50.12908131 101.86196787 50.12908131 90.98196787 50.12908131 C90.98196787 55.40908131 90.98196787 60.68908131 90.98196787 66.12908131 C90.32196787 66.12908131 89.66196787 66.12908131 88.98196787 66.12908131 C88.98196787 60.18908131 88.98196787 54.24908131 88.98196787 48.12908131 C94.26196787 48.12908131 99.54196787 48.12908131 104.98196787 48.12908131 C104.98196787 38.22908131 104.98196787 28.32908131 104.98196787 18.12908131 C99.70196787 18.12908131 94.42196787 18.12908131 88.98196787 18.12908131 C88.98196787 17.46908131 88.98196787 16.80908131 88.98196787 16.12908131 C99.54196787 16.12908131 110.10196787 16.12908131 120.98196787 16.12908131 C120.98196787 11.50908131 120.98196787 6.88908131 120.98196787 2.12908131 C89.96196787 2.12908131 58.94196787 2.12908131 26.98196787 2.12908131 C26.98196787 12.68908131 26.98196787 23.24908131 26.98196787 34.12908131 C26.32196787 34.12908131 25.66196787 34.12908131 24.98196787 34.12908131 C24.98196787 23.56908131 24.98196787 13.00908131 24.98196787 2.12908131 C19.14783115 2.49712295 19.14783115 2.49712295 13.3144874 2.87737232 C12.22563242 2.94202687 12.22563242 2.94202687 11.11478037 3.00798756 C10.37115244 3.05511891 9.62752451 3.10225025 8.8613624 3.15080982 C6.98196787 3.12908131 6.98196787 3.12908131 4.98196787 2.12908131 C4.98196787 2.78908131 4.98196787 3.44908131 4.98196787 4.12908131 C3.84759287 4.25283131 2.71321787 4.37658131 1.54446787 4.50408131 C-0.21896963 4.81345631 -0.21896963 4.81345631 -2.01803213 5.12908131 C-2.34803213 5.78908131 -2.67803213 6.44908131 -3.01803213 7.12908131 C-3.67803213 7.12908131 -4.33803213 7.12908131 -5.01803213 7.12908131 C-5.01803213 25.93908131 -5.01803213 44.74908131 -5.01803213 64.12908131 C10.82196787 64.12908131 26.66196787 64.12908131 42.98196787 64.12908131 C42.98196787 64.78908131 42.98196787 65.44908131 42.98196787 66.12908131 C27.14196787 66.12908131 11.30196787 66.12908131 -5.01803213 66.12908131 C-5.01803213 91.86908131 -5.01803213 117.60908131 -5.01803213 144.12908131 C0.26196787 144.12908131 5.54196787 144.12908131 10.98196787 144.12908131 C10.98196787 144.78908131 10.98196787 145.44908131 10.98196787 146.12908131 C5.70196787 146.12908131 0.42196787 146.12908131 -5.01803213 146.12908131 C-5.01803213 150.74908131 -5.01803213 155.36908131 -5.01803213 160.12908131 C4.88196787 160.12908131 14.78196787 160.12908131 24.98196787 160.12908131 C24.98196787 154.84908131 24.98196787 149.56908131 24.98196787 144.12908131 C25.64196787 144.12908131 26.30196787 144.12908131 26.98196787 144.12908131 C26.98196787 150.06908131 26.98196787 156.00908131 26.98196787 162.12908131 C16.42196787 162.12908131 5.86196787 162.12908131 -5.01803213 162.12908131 C-5.01803213 172.02908131 -5.01803213 181.92908131 -5.01803213 192.12908131 C0.26196787 192.12908131 5.54196787 192.12908131 10.98196787 192.12908131 C10.98196787 192.78908131 10.98196787 193.44908131 10.98196787 194.12908131 C5.70196787 194.12908131 0.42196787 194.12908131 -5.01803213 194.12908131 C-5.01803213 204.02908131 -5.01803213 213.92908131 -5.01803213 224.12908131 C0.26196787 224.12908131 5.54196787 224.12908131 10.98196787 224.12908131 C10.98196787 229.40908131 10.98196787 234.68908131 10.98196787 240.12908131 C16.26196787 240.12908131 21.54196787 240.12908131 26.98196787 240.12908131 C26.98196787 240.78908131 26.98196787 241.44908131 26.98196787 242.12908131 C21.04196787 242.12908131 15.10196787 242.12908131 8.98196787 242.12908131 C8.98196787 236.84908131 8.98196787 231.56908131 8.98196787 226.12908131 C4.36196787 226.12908131 -0.25803213 226.12908131 -5.01803213 226.12908131 C-5.01803213 236.02908131 -5.01803213 245.92908131 -5.01803213 256.12908131 C0.26196787 256.12908131 5.54196787 256.12908131 10.98196787 256.12908131 C10.98196787 256.78908131 10.98196787 257.44908131 10.98196787 258.12908131 C5.70196787 258.12908131 0.42196787 258.12908131 -5.01803213 258.12908131 C-5.01803213 268.02908131 -5.01803213 277.92908131 -5.01803213 288.12908131 C0.26196787 288.12908131 5.54196787 288.12908131 10.98196787 288.12908131 C10.98196787 288.78908131 10.98196787 289.44908131 10.98196787 290.12908131 C5.70196787 290.12908131 0.42196787 290.12908131 -5.01803213 290.12908131 C-5.01803213 310.58908131 -5.01803213 331.04908131 -5.01803213 352.12908131 C0.26196787 352.12908131 5.54196787 352.12908131 10.98196787 352.12908131 C10.98196787 352.78908131 10.98196787 353.44908131 10.98196787 354.12908131 C5.70196787 354.12908131 0.42196787 354.12908131 -5.01803213 354.12908131 C-5.01803213 395.70908131 -5.01803213 437.28908131 -5.01803213 480.12908131 C-0.39803213 480.12908131 4.22196787 480.12908131 8.98196787 480.12908131 C8.98196787 464.28908131 8.98196787 448.44908131 8.98196787 432.12908131 C14.26196787 432.12908131 19.54196787 432.12908131 24.98196787 432.12908131 C24.98196787 416.28908131 24.98196787 400.44908131 24.98196787 384.12908131 C25.64196787 384.12908131 26.30196787 384.12908131 26.98196787 384.12908131 C26.98196787 389.40908131 26.98196787 394.68908131 26.98196787 400.12908131 C36.88196787 400.12908131 46.78196787 400.12908131 56.98196787 400.12908131 C56.98196787 384.94908131 56.98196787 369.76908131 56.98196787 354.12908131 C51.70196787 354.12908131 46.42196787 354.12908131 40.98196787 354.12908131 C40.98196787 343.56908131 40.98196787 333.00908131 40.98196787 322.12908131 C35.70196787 322.12908131 30.42196787 322.12908131 24.98196787 322.12908131 C24.98196787 316.84908131 24.98196787 311.56908131 24.98196787 306.12908131 C20.36196787 306.12908131 15.74196787 306.12908131 10.98196787 306.12908131 C10.98196787 316.02908131 10.98196787 325.92908131 10.98196787 336.12908131 C16.26196787 336.12908131 21.54196787 336.12908131 26.98196787 336.12908131 C26.98196787 346.68908131 26.98196787 357.24908131 26.98196787 368.12908131 C32.26196787 368.12908131 37.54196787 368.12908131 42.98196787 368.12908131 C42.98196787 374.06908131 42.98196787 380.00908131 42.98196787 386.12908131 C42.32196787 386.12908131 41.66196787 386.12908131 40.98196787 386.12908131 C40.98196787 380.84908131 40.98196787 375.56908131 40.98196787 370.12908131 C31.08196787 370.12908131 21.18196787 370.12908131 10.98196787 370.12908131 C10.98196787 385.96908131 10.98196787 401.80908131 10.98196787 418.12908131 C10.32196787 418.12908131 9.66196787 418.12908131 8.98196787 418.12908131 C8.98196787 401.62908131 8.98196787 385.12908131 8.98196787 368.12908131 C14.26196787 368.12908131 19.54196787 368.12908131 24.98196787 368.12908131 C24.98196787 358.22908131 24.98196787 348.32908131 24.98196787 338.12908131 C19.70196787 338.12908131 14.42196787 338.12908131 8.98196787 338.12908131 C8.98196787 326.90908131 8.98196787 315.68908131 8.98196787 304.12908131 C14.26196787 304.12908131 19.54196787 304.12908131 24.98196787 304.12908131 C24.98196787 294.22908131 24.98196787 284.32908131 24.98196787 274.12908131 C19.70196787 274.12908131 14.42196787 274.12908131 8.98196787 274.12908131 C8.98196787 273.46908131 8.98196787 272.80908131 8.98196787 272.12908131 C14.26196787 272.12908131 19.54196787 272.12908131 24.98196787 272.12908131 C24.98196787 266.84908131 24.98196787 261.56908131 24.98196787 256.12908131 C25.64196787 256.12908131 26.30196787 256.12908131 26.98196787 256.12908131 C26.98196787 277.24908131 26.98196787 298.36908131 26.98196787 320.12908131 C32.26196787 320.12908131 37.54196787 320.12908131 42.98196787 320.12908131 C42.98196787 330.68908131 42.98196787 341.24908131 42.98196787 352.12908131 C48.26196787 352.12908131 53.54196787 352.12908131 58.98196787 352.12908131 C58.98196787 362.68908131 58.98196787 373.24908131 58.98196787 384.12908131 C69.54196787 384.12908131 80.10196787 384.12908131 90.98196787 384.12908131 C90.98196787 384.78908131 90.98196787 385.44908131 90.98196787 386.12908131 C85.70196787 386.12908131 80.42196787 386.12908131 74.98196787 386.12908131 C74.98196787 391.40908131 74.98196787 396.68908131 74.98196787 402.12908131 C74.32196787 402.12908131 73.66196787 402.12908131 72.98196787 402.12908131 C72.98196787 396.84908131 72.98196787 391.56908131 72.98196787 386.12908131 C68.36196787 386.12908131 63.74196787 386.12908131 58.98196787 386.12908131 C58.98196787 391.40908131 58.98196787 396.68908131 58.98196787 402.12908131 C48.42196787 402.12908131 37.86196787 402.12908131 26.98196787 402.12908131 C26.98196787 412.68908131 26.98196787 423.24908131 26.98196787 434.12908131 C21.70196787 434.12908131 16.42196787 434.12908131 10.98196787 434.12908131 C10.98196787 449.30908131 10.98196787 464.48908131 10.98196787 480.12908131 C36.72196787 480.12908131 62.46196787 480.12908131 88.98196787 480.12908131 C88.98196787 474.84908131 88.98196787 469.56908131 88.98196787 464.12908131 C89.64196787 464.12908131 90.30196787 464.12908131 90.98196787 464.12908131 C90.98196787 469.40908131 90.98196787 474.68908131 90.98196787 480.12908131 C95.60196787 480.12908131 100.22196787 480.12908131 104.98196787 480.12908131 C104.98196787 469.56908131 104.98196787 459.00908131 104.98196787 448.12908131 C105.64196787 448.12908131 106.30196787 448.12908131 106.98196787 448.12908131 C106.98196787 458.68908131 106.98196787 469.24908131 106.98196787 480.12908131 C116.88196787 480.12908131 126.78196787 480.12908131 136.98196787 480.12908131 C136.98196787 474.84908131 136.98196787 469.56908131 136.98196787 464.12908131 C142.59196787 463.79908131 148.20196787 463.46908131 153.98196787 463.12908131 C154.31196787 464.11908131 154.64196787 465.10908131 154.98196787 466.12908131 C149.70196787 466.12908131 144.42196787 466.12908131 138.98196787 466.12908131 C138.98196787 470.74908131 138.98196787 475.36908131 138.98196787 480.12908131 C140.79374521 480.00339772 140.79374521 480.00339772 142.64212412 479.87517506 C162.10287762 478.70644527 181.51463177 479.47716429 200.98196787 480.12908131 C200.98196787 475.50908131 200.98196787 470.88908131 200.98196787 466.12908131 C190.42196787 466.12908131 179.86196787 466.12908131 168.98196787 466.12908131 C168.98196787 460.84908131 168.98196787 455.56908131 168.98196787 450.12908131 C153.80196787 450.12908131 138.62196787 450.12908131 122.98196787 450.12908131 C122.98196787 455.40908131 122.98196787 460.68908131 122.98196787 466.12908131 C122.32196787 466.12908131 121.66196787 466.12908131 120.98196787 466.12908131 C120.98196787 455.56908131 120.98196787 445.00908131 120.98196787 434.12908131 C111.08196787 434.12908131 101.18196787 434.12908131 90.98196787 434.12908131 C90.98196787 439.40908131 90.98196787 444.68908131 90.98196787 450.12908131 C85.70196787 450.12908131 80.42196787 450.12908131 74.98196787 450.12908131 C74.98196787 455.40908131 74.98196787 460.68908131 74.98196787 466.12908131 C58.48196787 466.12908131 41.98196787 466.12908131 24.98196787 466.12908131 C24.98196787 460.18908131 24.98196787 454.24908131 24.98196787 448.12908131 C30.26196787 448.12908131 35.54196787 448.12908131 40.98196787 448.12908131 C40.98196787 437.56908131 40.98196787 427.00908131 40.98196787 416.12908131 C41.64196787 416.12908131 42.30196787 416.12908131 42.98196787 416.12908131 C42.98196787 426.68908131 42.98196787 437.24908131 42.98196787 448.12908131 C48.26196787 448.12908131 53.54196787 448.12908131 58.98196787 448.12908131 C58.98196787 448.78908131 58.98196787 449.44908131 58.98196787 450.12908131 C48.42196787 450.12908131 37.86196787 450.12908131 26.98196787 450.12908131 C26.98196787 454.74908131 26.98196787 459.36908131 26.98196787 464.12908131 C42.16196787 464.12908131 57.34196787 464.12908131 72.98196787 464.12908131 C72.98196787 453.56908131 72.98196787 443.00908131 72.98196787 432.12908131 C73.64196787 432.12908131 74.30196787 432.12908131 74.98196787 432.12908131 C74.98196787 437.40908131 74.98196787 442.68908131 74.98196787 448.12908131 C79.60196787 448.12908131 84.22196787 448.12908131 88.98196787 448.12908131 C88.98196787 438.22908131 88.98196787 428.32908131 88.98196787 418.12908131 C79.08196787 418.12908131 69.18196787 418.12908131 58.98196787 418.12908131 C58.98196787 423.40908131 58.98196787 428.68908131 58.98196787 434.12908131 C58.32196787 434.12908131 57.66196787 434.12908131 56.98196787 434.12908131 C56.98196787 428.18908131 56.98196787 422.24908131 56.98196787 416.12908131 C67.54196787 416.12908131 78.10196787 416.12908131 88.98196787 416.12908131 C88.98196787 410.84908131 88.98196787 405.56908131 88.98196787 400.12908131 C89.64196787 400.12908131 90.30196787 400.12908131 90.98196787 400.12908131 C90.98196787 405.40908131 90.98196787 410.68908131 90.98196787 416.12908131 C96.26196787 416.12908131 101.54196787 416.12908131 106.98196787 416.12908131 C106.98196787 416.78908131 106.98196787 417.44908131 106.98196787 418.12908131 C101.70196787 418.12908131 96.42196787 418.12908131 90.98196787 418.12908131 C90.98196787 422.74908131 90.98196787 427.36908131 90.98196787 432.12908131 C100.88196787 432.12908131 110.78196787 432.12908131 120.98196787 432.12908131 C120.98196787 422.22908131 120.98196787 412.32908131 120.98196787 402.12908131 C115.70196787 402.12908131 110.42196787 402.12908131 104.98196787 402.12908131 C104.98196787 381.00908131 104.98196787 359.88908131 104.98196787 338.12908131 C99.70196787 338.12908131 94.42196787 338.12908131 88.98196787 338.12908131 C88.98196787 337.46908131 88.98196787 336.80908131 88.98196787 336.12908131 C99.54196787 336.12908131 110.10196787 336.12908131 120.98196787 336.12908131 C120.98196787 330.84908131 120.98196787 325.56908131 120.98196787 320.12908131 C121.64196787 320.12908131 122.30196787 320.12908131 122.98196787 320.12908131 C122.98196787 335.96908131 122.98196787 351.80908131 122.98196787 368.12908131 C128.26196787 368.12908131 133.54196787 368.12908131 138.98196787 368.12908131 C138.98196787 368.78908131 138.98196787 369.44908131 138.98196787 370.12908131 C133.70196787 370.12908131 128.42196787 370.12908131 122.98196787 370.12908131 C122.98196787 375.40908131 122.98196787 380.68908131 122.98196787 386.12908131 C122.32196787 386.12908131 121.66196787 386.12908131 120.98196787 386.12908131 C120.98196787 370.28908131 120.98196787 354.44908131 120.98196787 338.12908131 C116.36196787 338.12908131 111.74196787 338.12908131 106.98196787 338.12908131 C106.98196787 358.58908131 106.98196787 379.04908131 106.98196787 400.12908131 C116.88196787 400.12908131 126.78196787 400.12908131 136.98196787 400.12908131 C136.98196787 394.84908131 136.98196787 389.56908131 136.98196787 384.12908131 C142.26196787 384.12908131 147.54196787 384.12908131 152.98196787 384.12908131 C152.98196787 374.22908131 152.98196787 364.32908131 152.98196787 354.12908131 C147.70196787 354.12908131 142.42196787 354.12908131 136.98196787 354.12908131 C136.98196787 338.28908131 136.98196787 322.44908131 136.98196787 306.12908131 C127.08196787 306.12908131 117.18196787 306.12908131 106.98196787 306.12908131 C106.98196787 311.40908131 106.98196787 316.68908131 106.98196787 322.12908131 C96.42196787 322.12908131 85.86196787 322.12908131 74.98196787 322.12908131 C74.98196787 332.02908131 74.98196787 341.92908131 74.98196787 352.12908131 C80.26196787 352.12908131 85.54196787 352.12908131 90.98196787 352.12908131 C90.98196787 358.06908131 90.98196787 364.00908131 90.98196787 370.12908131 C90.32196787 370.12908131 89.66196787 370.12908131 88.98196787 370.12908131 C88.98196787 364.84908131 88.98196787 359.56908131 88.98196787 354.12908131 C84.36196787 354.12908131 79.74196787 354.12908131 74.98196787 354.12908131 C74.98196787 359.40908131 74.98196787 364.68908131 74.98196787 370.12908131 C74.32196787 370.12908131 73.66196787 370.12908131 72.98196787 370.12908131 C72.98196787 359.56908131 72.98196787 349.00908131 72.98196787 338.12908131 C67.70196787 338.12908131 62.42196787 338.12908131 56.98196787 338.12908131 C56.98196787 337.46908131 56.98196787 336.80908131 56.98196787 336.12908131 C62.26196787 336.12908131 67.54196787 336.12908131 72.98196787 336.12908131 C72.98196787 330.84908131 72.98196787 325.56908131 72.98196787 320.12908131 C78.26196787 320.12908131 83.54196787 320.12908131 88.98196787 320.12908131 C88.98196787 310.22908131 88.98196787 300.32908131 88.98196787 290.12908131 C73.80196787 290.12908131 58.62196787 290.12908131 42.98196787 290.12908131 C42.98196787 294.74908131 42.98196787 299.36908131 42.98196787 304.12908131 C53.54196787 304.12908131 64.10196787 304.12908131 74.98196787 304.12908131 C74.98196787 304.78908131 74.98196787 305.44908131 74.98196787 306.12908131 C69.70196787 306.12908131 64.42196787 306.12908131 58.98196787 306.12908131 C58.98196787 311.40908131 58.98196787 316.68908131 58.98196787 322.12908131 C58.32196787 322.12908131 57.66196787 322.12908131 56.98196787 322.12908131 C56.98196787 316.84908131 56.98196787 311.56908131 56.98196787 306.12908131 C51.70196787 306.12908131 46.42196787 306.12908131 40.98196787 306.12908131 C40.98196787 300.18908131 40.98196787 294.24908131 40.98196787 288.12908131 C51.21196787 287.79908131 61.44196787 287.46908131 71.98196787 287.12908131 C72.31196787 271.61908131 72.64196787 256.10908131 72.98196787 240.12908131 C73.64196787 240.12908131 74.30196787 240.12908131 74.98196787 240.12908131 C74.98196787 250.68908131 74.98196787 261.24908131 74.98196787 272.12908131 C80.26196787 272.12908131 85.54196787 272.12908131 90.98196787 272.12908131 C90.98196787 272.78908131 90.98196787 273.44908131 90.98196787 274.12908131 C85.70196787 274.12908131 80.42196787 274.12908131 74.98196787 274.12908131 C74.98196787 278.74908131 74.98196787 283.36908131 74.98196787 288.12908131 C89.33696787 287.63408131 89.33696787 287.63408131 103.98196787 287.12908131 C104.31196787 277.55908131 104.64196787 267.98908131 104.98196787 258.12908131 C99.70196787 258.12908131 94.42196787 258.12908131 88.98196787 258.12908131 C88.98196787 247.56908131 88.98196787 237.00908131 88.98196787 226.12908131 C83.70196787 226.12908131 78.42196787 226.12908131 72.98196787 226.12908131 C72.98196787 220.84908131 72.98196787 215.56908131 72.98196787 210.12908131 C68.36196787 210.12908131 63.74196787 210.12908131 58.98196787 210.12908131 C58.98196787 231.24908131 58.98196787 252.36908131 58.98196787 274.12908131 C58.32196787 274.12908131 57.66196787 274.12908131 56.98196787 274.12908131 C56.98196787 253.00908131 56.98196787 231.88908131 56.98196787 210.12908131 C51.70196787 210.12908131 46.42196787 210.12908131 40.98196787 210.12908131 C40.98196787 209.46908131 40.98196787 208.80908131 40.98196787 208.12908131 C51.54196787 208.12908131 62.10196787 208.12908131 72.98196787 208.12908131 C72.98196787 198.22908131 72.98196787 188.32908131 72.98196787 178.12908131 C57.80196787 178.12908131 42.62196787 178.12908131 26.98196787 178.12908131 C26.98196787 182.74908131 26.98196787 187.36908131 26.98196787 192.12908131 C37.54196787 192.12908131 48.10196787 192.12908131 58.98196787 192.12908131 C58.98196787 192.78908131 58.98196787 193.44908131 58.98196787 194.12908131 C48.42196787 194.12908131 37.86196787 194.12908131 26.98196787 194.12908131 C26.98196787 204.02908131 26.98196787 213.92908131 26.98196787 224.12908131 C32.26196787 224.12908131 37.54196787 224.12908131 42.98196787 224.12908131 C42.98196787 240.62908131 42.98196787 257.12908131 42.98196787 274.12908131 C42.32196787 274.12908131 41.66196787 274.12908131 40.98196787 274.12908131 C40.98196787 258.28908131 40.98196787 242.44908131 40.98196787 226.12908131 C35.70196787 226.12908131 30.42196787 226.12908131 24.98196787 226.12908131 C23.81778825 220.3081832 24.34467955 216.00629576 24.98196787 210.12908131 C19.70196787 210.12908131 14.42196787 210.12908131 8.98196787 210.12908131 C8.98196787 209.46908131 8.98196787 208.80908131 8.98196787 208.12908131 C14.26196787 208.12908131 19.54196787 208.12908131 24.98196787 208.12908131 C24.98196787 198.22908131 24.98196787 188.32908131 24.98196787 178.12908131 C19.70196787 178.12908131 14.42196787 178.12908131 8.98196787 178.12908131 C8.98196787 177.46908131 8.98196787 176.80908131 8.98196787 176.12908131 C13.5674532 175.95877652 18.1531524 175.79857044 22.73929209 175.64690357 C24.29276922 175.59420261 25.84616234 175.53895008 27.39944834 175.48088795 C29.65854076 175.39692039 31.91779699 175.32277245 34.17728037 175.25017506 C35.18445612 175.20962246 35.18445612 175.20962246 36.21197885 175.16825062 C43.25407551 174.96002527 49.82586787 175.61793131 56.98196787 176.12908131 C56.98196787 165.56908131 56.98196787 155.00908131 56.98196787 144.12908131 C57.64196787 144.12908131 58.30196787 144.12908131 58.98196787 144.12908131 C58.98196787 154.68908131 58.98196787 165.24908131 58.98196787 176.12908131 C63.60196787 176.12908131 68.22196787 176.12908131 72.98196787 176.12908131 C72.98196787 170.84908131 72.98196787 165.56908131 72.98196787 160.12908131 C78.26196787 160.12908131 83.54196787 160.12908131 88.98196787 160.12908131 C88.98196787 144.94908131 88.98196787 129.76908131 88.98196787 114.12908131 C84.36196787 114.12908131 79.74196787 114.12908131 74.98196787 114.12908131 C74.98196787 124.68908131 74.98196787 135.24908131 74.98196787 146.12908131 C74.32196787 146.12908131 73.66196787 146.12908131 72.98196787 146.12908131 C72.98196787 140.84908131 72.98196787 135.56908131 72.98196787 130.12908131 C63.08196787 130.12908131 53.18196787 130.12908131 42.98196787 130.12908131 C42.98196787 140.68908131 42.98196787 151.24908131 42.98196787 162.12908131 C42.32196787 162.12908131 41.66196787 162.12908131 40.98196787 162.12908131 C40.98196787 151.56908131 40.98196787 141.00908131 40.98196787 130.12908131 C35.70196787 130.12908131 30.42196787 130.12908131 24.98196787 130.12908131 C24.98196787 129.46908131 24.98196787 128.80908131 24.98196787 128.12908131 C30.26196787 128.12908131 35.54196787 128.12908131 40.98196787 128.12908131 C40.98196787 118.22908131 40.98196787 108.32908131 40.98196787 98.12908131 C35.70196787 98.12908131 30.42196787 98.12908131 24.98196787 98.12908131 C24.98196787 97.46908131 24.98196787 96.80908131 24.98196787 96.12908131 C30.92196787 96.12908131 36.86196787 96.12908131 42.98196787 96.12908131 C42.98196787 106.68908131 42.98196787 117.24908131 42.98196787 128.12908131 C52.88196787 128.12908131 62.78196787 128.12908131 72.98196787 128.12908131 C72.98196787 117.56908131 72.98196787 107.00908131 72.98196787 96.12908131 C73.64196787 96.12908131 74.30196787 96.12908131 74.98196787 96.12908131 C74.98196787 101.40908131 74.98196787 106.68908131 74.98196787 112.12908131 C80.26196787 112.12908131 85.54196787 112.12908131 90.98196787 112.12908131 C90.98196787 128.62908131 90.98196787 145.12908131 90.98196787 162.12908131 C85.70196787 162.12908131 80.42196787 162.12908131 74.98196787 162.12908131 C74.98196787 182.58908131 74.98196787 203.04908131 74.98196787 224.12908131 C85.54196787 224.12908131 96.10196787 224.12908131 106.98196787 224.12908131 C107.47696787 231.55408131 107.47696787 231.55408131 107.98196787 239.12908131 C117.22196787 239.12908131 126.46196787 239.12908131 135.98196787 239.12908131 C136.31196787 234.17908131 136.64196787 229.22908131 136.98196787 224.12908131 C142.92196787 224.12908131 148.86196787 224.12908131 154.98196787 224.12908131 C154.98196787 224.78908131 154.98196787 225.44908131 154.98196787 226.12908131 C149.70196787 226.12908131 144.42196787 226.12908131 138.98196787 226.12908131 C138.98196787 231.40908131 138.98196787 236.68908131 138.98196787 242.12908131 C127.76196787 242.12908131 116.54196787 242.12908131 104.98196787 242.12908131 C104.98196787 236.84908131 104.98196787 231.56908131 104.98196787 226.12908131 C100.36196787 226.12908131 95.74196787 226.12908131 90.98196787 226.12908131 C90.98196787 236.02908131 90.98196787 245.92908131 90.98196787 256.12908131 C101.54196787 256.12908131 112.10196787 256.12908131 122.98196787 256.12908131 C122.98196787 256.78908131 122.98196787 257.44908131 122.98196787 258.12908131 C117.70196787 258.12908131 112.42196787 258.12908131 106.98196787 258.12908131 C107.47696787 272.48408131 107.47696787 272.48408131 107.98196787 287.12908131 C117.55196787 287.45908131 127.12196787 287.78908131 136.98196787 288.12908131 C136.98196787 283.50908131 136.98196787 278.88908131 136.98196787 274.12908131 C131.70196787 274.12908131 126.42196787 274.12908131 120.98196787 274.12908131 C120.98196787 273.46908131 120.98196787 272.80908131 120.98196787 272.12908131 C126.26196787 272.12908131 131.54196787 272.12908131 136.98196787 272.12908131 C136.98196787 266.84908131 136.98196787 261.56908131 136.98196787 256.12908131 C142.26196787 256.12908131 147.54196787 256.12908131 152.98196787 256.12908131 C152.98196787 250.84908131 152.98196787 245.56908131 152.98196787 240.12908131 C158.26196787 240.12908131 163.54196787 240.12908131 168.98196787 240.12908131 C168.98196787 234.84908131 168.98196787 229.56908131 168.98196787 224.12908131 C174.92196787 224.12908131 180.86196787 224.12908131 186.98196787 224.12908131 C186.98196787 224.78908131 186.98196787 225.44908131 186.98196787 226.12908131 C181.70196787 226.12908131 176.42196787 226.12908131 170.98196787 226.12908131 C170.98196787 230.74908131 170.98196787 235.36908131 170.98196787 240.12908131 C176.26196787 240.12908131 181.54196787 240.12908131 186.98196787 240.12908131 C186.98196787 240.78908131 186.98196787 241.44908131 186.98196787 242.12908131 C176.42196787 242.12908131 165.86196787 242.12908131 154.98196787 242.12908131 C154.98196787 252.02908131 154.98196787 261.92908131 154.98196787 272.12908131 C157.29196787 271.79908131 159.60196787 271.46908131 161.98196787 271.12908131 C164.95196787 271.45908131 167.92196787 271.78908131 170.98196787 272.12908131 C170.98196787 283.34908131 170.98196787 294.56908131 170.98196787 306.12908131 C170.32196787 306.12908131 169.66196787 306.12908131 168.98196787 306.12908131 C168.98196787 295.56908131 168.98196787 285.00908131 168.98196787 274.12908131 C163.70196787 274.12908131 158.42196787 274.12908131 152.98196787 274.12908131 C152.98196787 268.84908131 152.98196787 263.56908131 152.98196787 258.12908131 C148.36196787 258.12908131 143.74196787 258.12908131 138.98196787 258.12908131 C138.98196787 268.68908131 138.98196787 279.24908131 138.98196787 290.12908131 C123.14196787 290.12908131 107.30196787 290.12908131 90.98196787 290.12908131 C90.98196787 300.02908131 90.98196787 309.92908131 90.98196787 320.12908131 C95.60196787 320.12908131 100.22196787 320.12908131 104.98196787 320.12908131 C104.98196787 314.84908131 104.98196787 309.56908131 104.98196787 304.12908131 C116.20196787 304.12908131 127.42196787 304.12908131 138.98196787 304.12908131 C138.98196787 319.96908131 138.98196787 335.80908131 138.98196787 352.12908131 C143.60196787 352.12908131 148.22196787 352.12908131 152.98196787 352.12908131 C152.98196787 346.84908131 152.98196787 341.56908131 152.98196787 336.12908131 C153.64196787 336.12908131 154.30196787 336.12908131 154.98196787 336.12908131 C155.31196787 351.63908131 155.64196787 367.14908131 155.98196787 383.12908131 C165.55196787 383.45908131 175.12196787 383.78908131 184.98196787 384.12908131 C184.98196787 374.22908131 184.98196787 364.32908131 184.98196787 354.12908131 C180.36196787 354.12908131 175.74196787 354.12908131 170.98196787 354.12908131 C170.98196787 359.40908131 170.98196787 364.68908131 170.98196787 370.12908131 C170.32196787 370.12908131 169.66196787 370.12908131 168.98196787 370.12908131 C168.98196787 354.28908131 168.98196787 338.44908131 168.98196787 322.12908131 C163.70196787 322.12908131 158.42196787 322.12908131 152.98196787 322.12908131 C152.98196787 310.90908131 152.98196787 299.68908131 152.98196787 288.12908131 C153.64196787 288.12908131 154.30196787 288.12908131 154.98196787 288.12908131 C154.98196787 298.68908131 154.98196787 309.24908131 154.98196787 320.12908131 C175.44196787 320.12908131 195.90196787 320.12908131 216.98196787 320.12908131 C216.98196787 315.50908131 216.98196787 310.88908131 216.98196787 306.12908131 C206.42196787 306.12908131 195.86196787 306.12908131 184.98196787 306.12908131 C184.98196787 290.28908131 184.98196787 274.44908131 184.98196787 258.12908131 C179.70196787 258.12908131 174.42196787 258.12908131 168.98196787 258.12908131 C168.98196787 257.46908131 168.98196787 256.80908131 168.98196787 256.12908131 C179.54196787 255.79908131 190.10196787 255.46908131 200.98196787 255.12908131 C200.98196787 240.27908131 200.98196787 225.42908131 200.98196787 210.12908131 C195.70196787 210.12908131 190.42196787 210.12908131 184.98196787 210.12908131 C184.98196787 204.84908131 184.98196787 199.56908131 184.98196787 194.12908131 C180.36196787 194.12908131 175.74196787 194.12908131 170.98196787 194.12908131 C170.98196787 199.40908131 170.98196787 204.68908131 170.98196787 210.12908131 C165.04196787 210.12908131 159.10196787 210.12908131 152.98196787 210.12908131 C152.98196787 209.46908131 152.98196787 208.80908131 152.98196787 208.12908131 C158.26196787 207.79908131 163.54196787 207.46908131 168.98196787 207.12908131 C168.98196787 202.17908131 168.98196787 197.22908131 168.98196787 192.12908131 C174.26196787 192.12908131 179.54196787 192.12908131 184.98196787 192.12908131 C184.98196787 165.72908131 184.98196787 139.32908131 184.98196787 112.12908131 C190.92196787 112.12908131 196.86196787 112.12908131 202.98196787 112.12908131 C202.98196787 112.78908131 202.98196787 113.44908131 202.98196787 114.12908131 C197.70196787 114.12908131 192.42196787 114.12908131 186.98196787 114.12908131 C186.98196787 145.14908131 186.98196787 176.16908131 186.98196787 208.12908131 C209.25696787 207.63408131 209.25696787 207.63408131 231.98196787 207.12908131 C232.31196787 197.55908131 232.64196787 187.98908131 232.98196787 178.12908131 C223.08196787 178.12908131 213.18196787 178.12908131 202.98196787 178.12908131 C203.31196787 182.41908131 203.64196787 186.70908131 203.98196787 191.12908131 C208.93196787 191.45908131 213.88196787 191.78908131 218.98196787 192.12908131 C218.98196787 192.78908131 218.98196787 193.44908131 218.98196787 194.12908131 C213.04196787 194.12908131 207.10196787 194.12908131 200.98196787 194.12908131 C200.98196787 172.34908131 200.98196787 150.56908131 200.98196787 128.12908131 C206.26196787 128.12908131 211.54196787 128.12908131 216.98196787 128.12908131 C216.98196787 118.22908131 216.98196787 108.32908131 216.98196787 98.12908131 C211.70196787 98.12908131 206.42196787 98.12908131 200.98196787 98.12908131 C200.98196787 92.84908131 200.98196787 87.56908131 200.98196787 82.12908131 C196.36196787 82.12908131 191.74196787 82.12908131 186.98196787 82.12908131 C186.98196787 87.40908131 186.98196787 92.68908131 186.98196787 98.12908131 C181.70196787 98.12908131 176.42196787 98.12908131 170.98196787 98.12908131 C170.98196787 108.68908131 170.98196787 119.24908131 170.98196787 130.12908131 C165.70196787 130.12908131 160.42196787 130.12908131 154.98196787 130.12908131 C154.98196787 134.74908131 154.98196787 139.36908131 154.98196787 144.12908131 C160.26196787 144.12908131 165.54196787 144.12908131 170.98196787 144.12908131 C170.98196787 155.34908131 170.98196787 166.56908131 170.98196787 178.12908131 C165.70196787 178.12908131 160.42196787 178.12908131 154.98196787 178.12908131 C154.98196787 183.40908131 154.98196787 188.68908131 154.98196787 194.12908131 C149.70196787 194.12908131 144.42196787 194.12908131 138.98196787 194.12908131 C138.98196787 199.40908131 138.98196787 204.68908131 138.98196787 210.12908131 C133.70196787 210.12908131 128.42196787 210.12908131 122.98196787 210.12908131 C122.98196787 215.40908131 122.98196787 220.68908131 122.98196787 226.12908131 C122.32196787 226.12908131 121.66196787 226.12908131 120.98196787 226.12908131 C120.98196787 220.84908131 120.98196787 215.56908131 120.98196787 210.12908131 C110.42196787 210.12908131 99.86196787 210.12908131 88.98196787 210.12908131 C88.98196787 198.90908131 88.98196787 187.68908131 88.98196787 176.12908131 C89.64196787 176.12908131 90.30196787 176.12908131 90.98196787 176.12908131 C91.31196787 186.35908131 91.64196787 196.58908131 91.98196787 207.12908131 C114.25696787 207.62408131 114.25696787 207.62408131 136.98196787 208.12908131 C136.98196787 192.94908131 136.98196787 177.76908131 136.98196787 162.12908131 C127.08196787 162.12908131 117.18196787 162.12908131 106.98196787 162.12908131 C106.98196787 172.02908131 106.98196787 181.92908131 106.98196787 192.12908131 C111.60196787 192.12908131 116.22196787 192.12908131 120.98196787 192.12908131 C120.98196787 186.84908131 120.98196787 181.56908131 120.98196787 176.12908131 C121.64196787 176.12908131 122.30196787 176.12908131 122.98196787 176.12908131 C122.98196787 182.06908131 122.98196787 188.00908131 122.98196787 194.12908131 C117.04196787 194.12908131 111.10196787 194.12908131 104.98196787 194.12908131 C104.98196787 182.90908131 104.98196787 171.68908131 104.98196787 160.12908131 C121.48196787 160.12908131 137.98196787 160.12908131 154.98196787 160.12908131 C154.98196787 160.78908131 154.98196787 161.44908131 154.98196787 162.12908131 C149.70196787 162.12908131 144.42196787 162.12908131 138.98196787 162.12908131 C138.98196787 172.02908131 138.98196787 181.92908131 138.98196787 192.12908131 C143.60196787 192.12908131 148.22196787 192.12908131 152.98196787 192.12908131 C152.98196787 186.84908131 152.98196787 181.56908131 152.98196787 176.12908131 C158.26196787 175.79908131 163.54196787 175.46908131 168.98196787 175.12908131 C168.98196787 165.55908131 168.98196787 155.98908131 168.98196787 146.12908131 C147.86196787 146.12908131 126.74196787 146.12908131 104.98196787 146.12908131 C104.98196787 130.28908131 104.98196787 114.44908131 104.98196787 98.12908131 C99.70196787 98.12908131 94.42196787 98.12908131 88.98196787 98.12908131 C88.98196787 97.46908131 88.98196787 96.80908131 88.98196787 96.12908131 C94.26196787 96.12908131 99.54196787 96.12908131 104.98196787 96.12908131 C104.98196787 91.50908131 104.98196787 86.88908131 104.98196787 82.12908131 C89.80196787 82.12908131 74.62196787 82.12908131 58.98196787 82.12908131 C58.98196787 92.68908131 58.98196787 103.24908131 58.98196787 114.12908131 C58.32196787 114.12908131 57.66196787 114.12908131 56.98196787 114.12908131 C56.98196787 103.56908131 56.98196787 93.00908131 56.98196787 82.12908131 C41.80196787 82.12908131 26.62196787 82.12908131 10.98196787 82.12908131 C10.98196787 92.02908131 10.98196787 101.92908131 10.98196787 112.12908131 C16.26196787 112.12908131 21.54196787 112.12908131 26.98196787 112.12908131 C26.98196787 112.78908131 26.98196787 113.44908131 26.98196787 114.12908131 C21.70196787 114.12908131 16.42196787 114.12908131 10.98196787 114.12908131 C10.98196787 119.40908131 10.98196787 124.68908131 10.98196787 130.12908131 C10.32196787 130.12908131 9.66196787 130.12908131 8.98196787 130.12908131 C8.98196787 113.62908131 8.98196787 97.12908131 8.98196787 80.12908131 C30.10196787 80.12908131 51.22196787 80.12908131 72.98196787 80.12908131 C72.98196787 59.66908131 72.98196787 39.20908131 72.98196787 18.12908131 C63.08196787 18.12908131 53.18196787 18.12908131 42.98196787 18.12908131 C42.98196787 28.02908131 42.98196787 37.92908131 42.98196787 48.12908131 C47.60196787 48.12908131 52.22196787 48.12908131 56.98196787 48.12908131 C56.98196787 42.84908131 56.98196787 37.56908131 56.98196787 32.12908131 C57.64196787 32.12908131 58.30196787 32.12908131 58.98196787 32.12908131 C58.98196787 43.34908131 58.98196787 54.56908131 58.98196787 66.12908131 C58.32196787 66.12908131 57.66196787 66.12908131 56.98196787 66.12908131 C56.98196787 60.84908131 56.98196787 55.56908131 56.98196787 50.12908131 C41.14196787 50.12908131 25.30196787 50.12908131 8.98196787 50.12908131 C8.98196787 38.90908131 8.98196787 27.68908131 8.98196787 16.12908131 C9.64196787 16.12908131 10.30196787 16.12908131 10.98196787 16.12908131 C10.98196787 26.68908131 10.98196787 37.24908131 10.98196787 48.12908131 C20.88196787 48.12908131 30.78196787 48.12908131 40.98196787 48.12908131 C40.98196787 37.56908131 40.98196787 27.00908131 40.98196787 16.12908131 C52.20196787 16.12908131 63.42196787 16.12908131 74.98196787 16.12908131 C74.98196787 21.40908131 74.98196787 26.68908131 74.98196787 32.12908131 C80.26196787 32.12908131 85.54196787 32.12908131 90.98196787 32.12908131 C90.98196787 32.78908131 90.98196787 33.44908131 90.98196787 34.12908131 C85.70196787 34.12908131 80.42196787 34.12908131 74.98196787 34.12908131 C74.98196787 49.30908131 74.98196787 64.48908131 74.98196787 80.12908131 C84.88196787 80.12908131 94.78196787 80.12908131 104.98196787 80.12908131 C104.98196787 74.84908131 104.98196787 69.56908131 104.98196787 64.12908131 C105.64196787 64.12908131 106.30196787 64.12908131 106.98196787 64.12908131 C106.98196787 74.68908131 106.98196787 85.24908131 106.98196787 96.12908131 C112.26196787 96.12908131 117.54196787 96.12908131 122.98196787 96.12908131 C122.98196787 96.78908131 122.98196787 97.44908131 122.98196787 98.12908131 C117.70196787 98.12908131 112.42196787 98.12908131 106.98196787 98.12908131 C106.98196787 113.30908131 106.98196787 128.48908131 106.98196787 144.12908131 C111.60196787 144.12908131 116.22196787 144.12908131 120.98196787 144.12908131 C120.98196787 138.84908131 120.98196787 133.56908131 120.98196787 128.12908131 C121.64196787 128.12908131 122.30196787 128.12908131 122.98196787 128.12908131 C122.98196787 133.40908131 122.98196787 138.68908131 122.98196787 144.12908131 C132.88196787 144.12908131 142.78196787 144.12908131 152.98196787 144.12908131 C152.98196787 138.84908131 152.98196787 133.56908131 152.98196787 128.12908131 C158.26196787 128.12908131 163.54196787 128.12908131 168.98196787 128.12908131 C168.98196787 118.22908131 168.98196787 108.32908131 168.98196787 98.12908131 C159.08196787 98.12908131 149.18196787 98.12908131 138.98196787 98.12908131 C138.98196787 102.74908131 138.98196787 107.36908131 138.98196787 112.12908131 C144.26196787 112.12908131 149.54196787 112.12908131 154.98196787 112.12908131 C154.98196787 112.78908131 154.98196787 113.44908131 154.98196787 114.12908131 C149.70196787 114.12908131 144.42196787 114.12908131 138.98196787 114.12908131 C138.98196787 119.40908131 138.98196787 124.68908131 138.98196787 130.12908131 C138.32196787 130.12908131 137.66196787 130.12908131 136.98196787 130.12908131 C136.98196787 124.84908131 136.98196787 119.56908131 136.98196787 114.12908131 C131.70196787 114.12908131 126.42196787 114.12908131 120.98196787 114.12908131 C120.98196787 113.46908131 120.98196787 112.80908131 120.98196787 112.12908131 C126.26196787 112.12908131 131.54196787 112.12908131 136.98196787 112.12908131 C136.98196787 102.22908131 136.98196787 92.32908131 136.98196787 82.12908131 C131.70196787 82.12908131 126.42196787 82.12908131 120.98196787 82.12908131 C120.98196787 76.18908131 120.98196787 70.24908131 120.98196787 64.12908131 C121.64196787 64.12908131 122.30196787 64.12908131 122.98196787 64.12908131 C122.98196787 69.40908131 122.98196787 74.68908131 122.98196787 80.12908131 C128.26196787 80.12908131 133.54196787 80.12908131 138.98196787 80.12908131 C138.98196787 85.40908131 138.98196787 90.68908131 138.98196787 96.12908131 C161.25696787 95.63408131 161.25696787 95.63408131 183.98196787 95.12908131 C184.31196787 85.55908131 184.64196787 75.98908131 184.98196787 66.12908131 C179.70196787 66.12908131 174.42196787 66.12908131 168.98196787 66.12908131 C168.98196787 65.46908131 168.98196787 64.80908131 168.98196787 64.12908131 C174.92196787 64.12908131 180.86196787 64.12908131 186.98196787 64.12908131 C186.98196787 69.40908131 186.98196787 74.68908131 186.98196787 80.12908131 C192.26196787 80.12908131 197.54196787 80.12908131 202.98196787 80.12908131 C203.31196787 85.07908131 203.64196787 90.02908131 203.98196787 95.12908131 C208.93196787 95.45908131 213.88196787 95.78908131 218.98196787 96.12908131 C218.98196787 107.34908131 218.98196787 118.56908131 218.98196787 130.12908131 C214.98196787 131.12908131 214.98196787 131.12908131 202.98196787 130.12908131 C202.98196787 145.30908131 202.98196787 160.48908131 202.98196787 176.12908131 C212.88196787 176.12908131 222.78196787 176.12908131 232.98196787 176.12908131 C232.98196787 170.84908131 232.98196787 165.56908131 232.98196787 160.12908131 C233.64196787 160.12908131 234.30196787 160.12908131 234.98196787 160.12908131 C235.31196787 175.96908131 235.64196787 191.80908131 235.98196787 208.12908131 C256.11196787 208.12908131 276.24196787 208.12908131 296.98196787 208.12908131 C296.98196787 202.84908131 296.98196787 197.56908131 296.98196787 192.12908131 C297.64196787 192.12908131 298.30196787 192.12908131 298.98196787 192.12908131 C298.98196787 203.34908131 298.98196787 214.56908131 298.98196787 226.12908131 C293.04196787 226.12908131 287.10196787 226.12908131 280.98196787 226.12908131 C280.98196787 225.46908131 280.98196787 224.80908131 280.98196787 224.12908131 C286.26196787 224.12908131 291.54196787 224.12908131 296.98196787 224.12908131 C296.98196787 219.50908131 296.98196787 214.88908131 296.98196787 210.12908131 C287.08196787 210.12908131 277.18196787 210.12908131 266.98196787 210.12908131 C266.98196787 220.02908131 266.98196787 229.92908131 266.98196787 240.12908131 C272.26196787 240.12908131 277.54196787 240.12908131 282.98196787 240.12908131 C282.98196787 240.78908131 282.98196787 241.44908131 282.98196787 242.12908131 C277.70196787 242.12908131 272.42196787 242.12908131 266.98196787 242.12908131 C266.98196787 257.96908131 266.98196787 273.80908131 266.98196787 290.12908131 C266.32196787 290.12908131 265.66196787 290.12908131 264.98196787 290.12908131 C264.98196787 274.28908131 264.98196787 258.44908131 264.98196787 242.12908131 C260.69196787 242.45908131 256.40196787 242.78908131 251.98196787 243.12908131 C251.65196787 248.07908131 251.32196787 253.02908131 250.98196787 258.12908131 C245.70196787 258.12908131 240.42196787 258.12908131 234.98196787 258.12908131 C234.98196787 263.40908131 234.98196787 268.68908131 234.98196787 274.12908131 C234.32196787 274.12908131 233.66196787 274.12908131 232.98196787 274.12908131 C232.98196787 268.18908131 232.98196787 262.24908131 232.98196787 256.12908131 C238.26196787 256.12908131 243.54196787 256.12908131 248.98196787 256.12908131 C248.98196787 250.84908131 248.98196787 245.56908131 248.98196787 240.12908131 C254.26196787 240.12908131 259.54196787 240.12908131 264.98196787 240.12908131 C264.98196787 230.22908131 264.98196787 220.32908131 264.98196787 210.12908131 C244.52196787 210.12908131 224.06196787 210.12908131 202.98196787 210.12908131 C202.98196787 225.96908131 202.98196787 241.80908131 202.98196787 258.12908131 C197.70196787 258.12908131 192.42196787 258.12908131 186.98196787 258.12908131 C186.98196787 273.30908131 186.98196787 288.48908131 186.98196787 304.12908131 C196.88196787 304.12908131 206.78196787 304.12908131 216.98196787 304.12908131 C216.98196787 294.22908131 216.98196787 284.32908131 216.98196787 274.12908131 C212.36196787 274.12908131 207.74196787 274.12908131 202.98196787 274.12908131 C202.98196787 279.40908131 202.98196787 284.68908131 202.98196787 290.12908131 C202.32196787 290.12908131 201.66196787 290.12908131 200.98196787 290.12908131 C200.98196787 284.18908131 200.98196787 278.24908131 200.98196787 272.12908131 C206.26196787 272.12908131 211.54196787 272.12908131 216.98196787 272.12908131 C216.98196787 256.28908131 216.98196787 240.44908131 216.98196787 224.12908131 C228.20196787 224.12908131 239.42196787 224.12908131 250.98196787 224.12908131 C250.98196787 224.78908131 250.98196787 225.44908131 250.98196787 226.12908131 C235.63696787 226.62408131 235.63696787 226.62408131 219.98196787 227.12908131 C219.65196787 231.41908131 219.32196787 235.70908131 218.98196787 240.12908131 C224.26196787 240.12908131 229.54196787 240.12908131 234.98196787 240.12908131 C234.98196787 240.78908131 234.98196787 241.44908131 234.98196787 242.12908131 C229.70196787 242.12908131 224.42196787 242.12908131 218.98196787 242.12908131 C218.98196787 257.30908131 218.98196787 272.48908131 218.98196787 288.12908131 C228.88196787 288.12908131 238.78196787 288.12908131 248.98196787 288.12908131 C248.98196787 282.84908131 248.98196787 277.56908131 248.98196787 272.12908131 C249.64196787 272.12908131 250.30196787 272.12908131 250.98196787 272.12908131 C250.98196787 278.06908131 250.98196787 284.00908131 250.98196787 290.12908131 C240.42196787 290.12908131 229.86196787 290.12908131 218.98196787 290.12908131 C219.31196787 299.69908131 219.64196787 309.26908131 219.98196787 319.12908131 C229.55196787 319.45908131 239.12196787 319.78908131 248.98196787 320.12908131 C248.98196787 315.50908131 248.98196787 310.88908131 248.98196787 306.12908131 C243.70196787 306.12908131 238.42196787 306.12908131 232.98196787 306.12908131 C232.98196787 305.46908131 232.98196787 304.80908131 232.98196787 304.12908131 C248.82196787 304.12908131 264.66196787 304.12908131 280.98196787 304.12908131 C280.98196787 298.84908131 280.98196787 293.56908131 280.98196787 288.12908131 C302.76196787 288.12908131 324.54196787 288.12908131 346.98196787 288.12908131 C346.98196787 288.78908131 346.98196787 289.44908131 346.98196787 290.12908131 C325.86196787 290.12908131 304.74196787 290.12908131 282.98196787 290.12908131 C282.98196787 300.02908131 282.98196787 309.92908131 282.98196787 320.12908131 C288.26196787 320.12908131 293.54196787 320.12908131 298.98196787 320.12908131 C298.98196787 320.78908131 298.98196787 321.44908131 298.98196787 322.12908131 C293.70196787 322.12908131 288.42196787 322.12908131 282.98196787 322.12908131 C282.98196787 327.40908131 282.98196787 332.68908131 282.98196787 338.12908131 C282.32196787 338.12908131 281.66196787 338.12908131 280.98196787 338.12908131 C280.98196787 327.56908131 280.98196787 317.00908131 280.98196787 306.12908131 C271.08196787 306.12908131 261.18196787 306.12908131 250.98196787 306.12908131 C250.98196787 316.02908131 250.98196787 325.92908131 250.98196787 336.12908131 C255.60196787 336.12908131 260.22196787 336.12908131 264.98196787 336.12908131 C264.98196787 330.84908131 264.98196787 325.56908131 264.98196787 320.12908131 C265.64196787 320.12908131 266.30196787 320.12908131 266.98196787 320.12908131 C266.98196787 330.68908131 266.98196787 341.24908131 266.98196787 352.12908131 C276.88196787 352.12908131 286.78196787 352.12908131 296.98196787 352.12908131 C296.98196787 346.84908131 296.98196787 341.56908131 296.98196787 336.12908131 C307.54196787 336.12908131 318.10196787 336.12908131 328.98196787 336.12908131 C328.98196787 326.22908131 328.98196787 316.32908131 328.98196787 306.12908131 C324.36196787 306.12908131 319.74196787 306.12908131 314.98196787 306.12908131 C314.98196787 311.40908131 314.98196787 316.68908131 314.98196787 322.12908131 C314.32196787 322.12908131 313.66196787 322.12908131 312.98196787 322.12908131 C312.98196787 316.84908131 312.98196787 311.56908131 312.98196787 306.12908131 C307.70196787 306.12908131 302.42196787 306.12908131 296.98196787 306.12908131 C296.98196787 305.46908131 296.98196787 304.80908131 296.98196787 304.12908131 C318.10196787 304.12908131 339.22196787 304.12908131 360.98196787 304.12908131 C360.98196787 294.22908131 360.98196787 284.32908131 360.98196787 274.12908131 C334.58196787 274.12908131 308.18196787 274.12908131 280.98196787 274.12908131 C280.98196787 268.18908131 280.98196787 262.24908131 280.98196787 256.12908131 C297.48196787 256.12908131 313.98196787 256.12908131 330.98196787 256.12908131 C330.98196787 256.78908131 330.98196787 257.44908131 330.98196787 258.12908131 C315.14196787 258.12908131 299.30196787 258.12908131 282.98196787 258.12908131 C283.31196787 262.41908131 283.64196787 266.70908131 283.98196787 271.12908131 C314.17696787 271.62408131 314.17696787 271.62408131 344.98196787 272.12908131 C344.98196787 262.22908131 344.98196787 252.32908131 344.98196787 242.12908131 C329.14196787 242.12908131 313.30196787 242.12908131 296.98196787 242.12908131 C296.98196787 241.46908131 296.98196787 240.80908131 296.98196787 240.12908131 C307.54196787 240.12908131 318.10196787 240.12908131 328.98196787 240.12908131 C328.98196787 235.50908131 328.98196787 230.88908131 328.98196787 226.12908131 C323.70196787 226.12908131 318.42196787 226.12908131 312.98196787 226.12908131 C312.98196787 210.28908131 312.98196787 194.44908131 312.98196787 178.12908131 C303.08196787 178.12908131 293.18196787 178.12908131 282.98196787 178.12908131 C282.98196787 183.40908131 282.98196787 188.68908131 282.98196787 194.12908131 C271.76196787 194.12908131 260.54196787 194.12908131 248.98196787 194.12908131 C248.98196787 178.28908131 248.98196787 162.44908131 248.98196787 146.12908131 C239.08196787 146.12908131 229.18196787 146.12908131 218.98196787 146.12908131 C218.98196787 151.40908131 218.98196787 156.68908131 218.98196787 162.12908131 C218.32196787 162.12908131 217.66196787 162.12908131 216.98196787 162.12908131 C216.98196787 156.18908131 216.98196787 150.24908131 216.98196787 144.12908131 C222.26196787 144.12908131 227.54196787 144.12908131 232.98196787 144.12908131 C232.98196787 118.38908131 232.98196787 92.64908131 232.98196787 66.12908131 C228.36196787 66.12908131 223.74196787 66.12908131 218.98196787 66.12908131 C219.31196787 71.07908131 219.64196787 76.02908131 219.98196787 81.12908131 C218.99196787 81.45908131 218.00196787 81.78908131 216.98196787 82.12908131 C216.98196787 76.84908131 216.98196787 71.56908131 216.98196787 66.12908131 C211.70196787 66.12908131 206.42196787 66.12908131 200.98196787 66.12908131 C200.98196787 65.46908131 200.98196787 64.80908131 200.98196787 64.12908131 C211.54196787 64.12908131 222.10196787 64.12908131 232.98196787 64.12908131 C232.98196787 54.22908131 232.98196787 44.32908131 232.98196787 34.12908131 C227.70196787 34.12908131 222.42196787 34.12908131 216.98196787 34.12908131 C216.98196787 33.46908131 216.98196787 32.80908131 216.98196787 32.12908131 C222.26196787 32.12908131 227.54196787 32.12908131 232.98196787 32.12908131 C232.98196787 26.84908131 232.98196787 21.56908131 232.98196787 16.12908131 C233.64196787 16.12908131 234.30196787 16.12908131 234.98196787 16.12908131 C234.98196787 31.96908131 234.98196787 47.80908131 234.98196787 64.12908131 C240.26196787 64.12908131 245.54196787 64.12908131 250.98196787 64.12908131 C250.98196787 64.78908131 250.98196787 65.44908131 250.98196787 66.12908131 C245.70196787 66.12908131 240.42196787 66.12908131 234.98196787 66.12908131 C234.98196787 76.02908131 234.98196787 85.92908131 234.98196787 96.12908131 C245.54196787 96.12908131 256.10196787 96.12908131 266.98196787 96.12908131 C266.98196787 96.78908131 266.98196787 97.44908131 266.98196787 98.12908131 C261.70196787 98.12908131 256.42196787 98.12908131 250.98196787 98.12908131 C250.98196787 108.02908131 250.98196787 117.92908131 250.98196787 128.12908131 C256.26196787 128.12908131 261.54196787 128.12908131 266.98196787 128.12908131 C266.98196787 134.06908131 266.98196787 140.00908131 266.98196787 146.12908131 C266.32196787 146.12908131 265.66196787 146.12908131 264.98196787 146.12908131 C264.98196787 140.84908131 264.98196787 135.56908131 264.98196787 130.12908131 C259.70196787 130.12908131 254.42196787 130.12908131 248.98196787 130.12908131 C248.98196787 119.56908131 248.98196787 109.00908131 248.98196787 98.12908131 C244.36196787 98.12908131 239.74196787 98.12908131 234.98196787 98.12908131 C234.98196787 113.30908131 234.98196787 128.48908131 234.98196787 144.12908131 C240.26196787 144.12908131 245.54196787 144.12908131 250.98196787 144.12908131 C250.98196787 159.96908131 250.98196787 175.80908131 250.98196787 192.12908131 C260.88196787 192.12908131 270.78196787 192.12908131 280.98196787 192.12908131 C280.98196787 182.22908131 280.98196787 172.32908131 280.98196787 162.12908131 C276.36196787 162.12908131 271.74196787 162.12908131 266.98196787 162.12908131 C266.98196787 167.40908131 266.98196787 172.68908131 266.98196787 178.12908131 C266.32196787 178.12908131 265.66196787 178.12908131 264.98196787 178.12908131 C264.98196787 172.18908131 264.98196787 166.24908131 264.98196787 160.12908131 C270.26196787 160.12908131 275.54196787 160.12908131 280.98196787 160.12908131 C280.98196787 149.56908131 280.98196787 139.00908131 280.98196787 128.12908131 C292.20196787 128.12908131 303.42196787 128.12908131 314.98196787 128.12908131 C314.98196787 133.40908131 314.98196787 138.68908131 314.98196787 144.12908131 C320.26196787 144.12908131 325.54196787 144.12908131 330.98196787 144.12908131 C330.98196787 150.06908131 330.98196787 156.00908131 330.98196787 162.12908131 C319.76196787 162.12908131 308.54196787 162.12908131 296.98196787 162.12908131 C296.98196787 156.18908131 296.98196787 150.24908131 296.98196787 144.12908131 C297.64196787 144.12908131 298.30196787 144.12908131 298.98196787 144.12908131 C298.98196787 149.40908131 298.98196787 154.68908131 298.98196787 160.12908131 C308.88196787 160.12908131 318.78196787 160.12908131 328.98196787 160.12908131 C328.98196787 155.50908131 328.98196787 150.88908131 328.98196787 146.12908131 C323.70196787 146.12908131 318.42196787 146.12908131 312.98196787 146.12908131 C312.98196787 140.84908131 312.98196787 135.56908131 312.98196787 130.12908131 C303.41196787 130.45908131 293.84196787 130.78908131 283.98196787 131.12908131 C283.65196787 145.97908131 283.32196787 160.82908131 282.98196787 176.12908131 C293.54196787 176.12908131 304.10196787 176.12908131 314.98196787 176.12908131 C314.98196787 181.40908131 314.98196787 186.68908131 314.98196787 192.12908131 C330.16196787 192.12908131 345.34196787 192.12908131 360.98196787 192.12908131 C360.98196787 186.84908131 360.98196787 181.56908131 360.98196787 176.12908131 C361.64196787 176.12908131 362.30196787 176.12908131 362.98196787 176.12908131 C362.98196787 181.40908131 362.98196787 186.68908131 362.98196787 192.12908131 C367.60196787 192.12908131 372.22196787 192.12908131 376.98196787 192.12908131 C376.98196787 182.22908131 376.98196787 172.32908131 376.98196787 162.12908131 C367.08196787 162.12908131 357.18196787 162.12908131 346.98196787 162.12908131 C346.98196787 167.40908131 346.98196787 172.68908131 346.98196787 178.12908131 C341.04196787 178.12908131 335.10196787 178.12908131 328.98196787 178.12908131 C328.98196787 177.46908131 328.98196787 176.80908131 328.98196787 176.12908131 C334.26196787 176.12908131 339.54196787 176.12908131 344.98196787 176.12908131 C344.98196787 170.84908131 344.98196787 165.56908131 344.98196787 160.12908131 C355.54196787 160.12908131 366.10196787 160.12908131 376.98196787 160.12908131 C376.98196787 155.50908131 376.98196787 150.88908131 376.98196787 146.12908131 C366.42196787 146.12908131 355.86196787 146.12908131 344.98196787 146.12908131 C344.98196787 140.18908131 344.98196787 134.24908131 344.98196787 128.12908131 C345.64196787 128.12908131 346.30196787 128.12908131 346.98196787 128.12908131 C347.31196787 133.40908131 347.64196787 138.68908131 347.98196787 144.12908131 C358.21196787 144.12908131 368.44196787 144.12908131 378.98196787 144.12908131 C378.98196787 160.62908131 378.98196787 177.12908131 378.98196787 194.12908131 C357.86196787 194.12908131 336.74196787 194.12908131 314.98196787 194.12908131 C314.98196787 204.02908131 314.98196787 213.92908131 314.98196787 224.12908131 C320.26196787 224.12908131 325.54196787 224.12908131 330.98196787 224.12908131 C330.98196787 229.40908131 330.98196787 234.68908131 330.98196787 240.12908131 C340.88196787 240.12908131 350.78196787 240.12908131 360.98196787 240.12908131 C360.98196787 234.84908131 360.98196787 229.56908131 360.98196787 224.12908131 C361.64196787 224.12908131 362.30196787 224.12908131 362.98196787 224.12908131 C362.98196787 229.40908131 362.98196787 234.68908131 362.98196787 240.12908131 C389.38196787 240.12908131 415.78196787 240.12908131 442.98196787 240.12908131 C442.98196787 246.06908131 442.98196787 252.00908131 442.98196787 258.12908131 C442.32196787 258.12908131 441.66196787 258.12908131 440.98196787 258.12908131 C440.98196787 252.84908131 440.98196787 247.56908131 440.98196787 242.12908131 C425.80196787 242.12908131 410.62196787 242.12908131 394.98196787 242.12908131 C394.98196787 246.74908131 394.98196787 251.36908131 394.98196787 256.12908131 C405.54196787 256.12908131 416.10196787 256.12908131 426.98196787 256.12908131 C426.98196787 261.40908131 426.98196787 266.68908131 426.98196787 272.12908131 C436.88196787 272.12908131 446.78196787 272.12908131 456.98196787 272.12908131 C456.98196787 266.84908131 456.98196787 261.56908131 456.98196787 256.12908131 C457.64196787 256.12908131 458.30196787 256.12908131 458.98196787 256.12908131 C458.98196787 267.34908131 458.98196787 278.56908131 458.98196787 290.12908131 C453.04196787 290.12908131 447.10196787 290.12908131 440.98196787 290.12908131 C440.98196787 289.46908131 440.98196787 288.80908131 440.98196787 288.12908131 C446.26196787 288.12908131 451.54196787 288.12908131 456.98196787 288.12908131 C456.98196787 283.50908131 456.98196787 278.88908131 456.98196787 274.12908131 C447.08196787 274.12908131 437.18196787 274.12908131 426.98196787 274.12908131 C426.98196787 279.40908131 426.98196787 284.68908131 426.98196787 290.12908131 C426.32196787 290.12908131 425.66196787 290.12908131 424.98196787 290.12908131 C424.98196787 279.56908131 424.98196787 269.00908131 424.98196787 258.12908131 C414.42196787 258.12908131 403.86196787 258.12908131 392.98196787 258.12908131 C392.98196787 252.84908131 392.98196787 247.56908131 392.98196787 242.12908131 C377.80196787 242.12908131 362.62196787 242.12908131 346.98196787 242.12908131 C346.98196787 252.02908131 346.98196787 261.92908131 346.98196787 272.12908131 C352.26196787 272.12908131 357.54196787 272.12908131 362.98196787 272.12908131 C362.98196787 283.34908131 362.98196787 294.56908131 362.98196787 306.12908131 C352.42196787 306.12908131 341.86196787 306.12908131 330.98196787 306.12908131 C330.98196787 316.68908131 330.98196787 327.24908131 330.98196787 338.12908131 C320.42196787 338.12908131 309.86196787 338.12908131 298.98196787 338.12908131 C299.31196787 347.69908131 299.64196787 357.26908131 299.98196787 367.12908131 C323.24696787 367.62408131 323.24696787 367.62408131 346.98196787 368.12908131 C346.98196787 374.06908131 346.98196787 380.00908131 346.98196787 386.12908131 C346.32196787 386.12908131 345.66196787 386.12908131 344.98196787 386.12908131 C344.98196787 380.84908131 344.98196787 375.56908131 344.98196787 370.12908131 C340.36196787 370.12908131 335.74196787 370.12908131 330.98196787 370.12908131 C330.98196787 380.02908131 330.98196787 389.92908131 330.98196787 400.12908131 C340.88196787 400.12908131 350.78196787 400.12908131 360.98196787 400.12908131 C360.98196787 389.56908131 360.98196787 379.00908131 360.98196787 368.12908131 C366.92196787 368.12908131 372.86196787 368.12908131 378.98196787 368.12908131 C378.98196787 368.78908131 378.98196787 369.44908131 378.98196787 370.12908131 C373.70196787 370.12908131 368.42196787 370.12908131 362.98196787 370.12908131 C362.98196787 374.74908131 362.98196787 379.36908131 362.98196787 384.12908131 C368.26196787 384.12908131 373.54196787 384.12908131 378.98196787 384.12908131 C378.98196787 384.78908131 378.98196787 385.44908131 378.98196787 386.12908131 C373.70196787 386.12908131 368.42196787 386.12908131 362.98196787 386.12908131 C362.98196787 396.02908131 362.98196787 405.92908131 362.98196787 416.12908131 C368.26196787 416.12908131 373.54196787 416.12908131 378.98196787 416.12908131 C378.98196787 421.40908131 378.98196787 426.68908131 378.98196787 432.12908131 C388.88196787 432.12908131 398.78196787 432.12908131 408.98196787 432.12908131 C408.98196787 426.84908131 408.98196787 421.56908131 408.98196787 416.12908131 C409.64196787 416.12908131 410.30196787 416.12908131 410.98196787 416.12908131 C410.98196787 422.06908131 410.98196787 428.00908131 410.98196787 434.12908131 C405.70196787 434.12908131 400.42196787 434.12908131 394.98196787 434.12908131 C394.98196787 439.40908131 394.98196787 444.68908131 394.98196787 450.12908131 C389.70196787 450.12908131 384.42196787 450.12908131 378.98196787 450.12908131 C378.98196787 455.40908131 378.98196787 460.68908131 378.98196787 466.12908131 C378.32196787 466.12908131 377.66196787 466.12908131 376.98196787 466.12908131 C376.98196787 460.84908131 376.98196787 455.56908131 376.98196787 450.12908131 C371.70196787 450.12908131 366.42196787 450.12908131 360.98196787 450.12908131 C360.98196787 449.46908131 360.98196787 448.80908131 360.98196787 448.12908131 C371.54196787 448.12908131 382.10196787 448.12908131 392.98196787 448.12908131 C392.98196787 443.50908131 392.98196787 438.88908131 392.98196787 434.12908131 C377.80196787 434.12908131 362.62196787 434.12908131 346.98196787 434.12908131 C346.98196787 444.68908131 346.98196787 455.24908131 346.98196787 466.12908131 C341.04196787 466.12908131 335.10196787 466.12908131 328.98196787 466.12908131 C328.98196787 465.46908131 328.98196787 464.80908131 328.98196787 464.12908131 C334.26196787 464.12908131 339.54196787 464.12908131 344.98196787 464.12908131 C344.98196787 453.56908131 344.98196787 443.00908131 344.98196787 432.12908131 C355.54196787 432.12908131 366.10196787 432.12908131 376.98196787 432.12908131 C376.98196787 427.50908131 376.98196787 422.88908131 376.98196787 418.12908131 C371.70196787 418.12908131 366.42196787 418.12908131 360.98196787 418.12908131 C360.98196787 412.84908131 360.98196787 407.56908131 360.98196787 402.12908131 C345.14196787 402.12908131 329.30196787 402.12908131 312.98196787 402.12908131 C312.98196787 401.46908131 312.98196787 400.80908131 312.98196787 400.12908131 C318.26196787 400.12908131 323.54196787 400.12908131 328.98196787 400.12908131 C328.98196787 390.22908131 328.98196787 380.32908131 328.98196787 370.12908131 C318.42196787 370.12908131 307.86196787 370.12908131 296.98196787 370.12908131 C296.98196787 364.84908131 296.98196787 359.56908131 296.98196787 354.12908131 C286.42196787 354.12908131 275.86196787 354.12908131 264.98196787 354.12908131 C264.98196787 348.84908131 264.98196787 343.56908131 264.98196787 338.12908131 C259.70196787 338.12908131 254.42196787 338.12908131 248.98196787 338.12908131 C248.98196787 332.84908131 248.98196787 327.56908131 248.98196787 322.12908131 C223.24196787 322.12908131 197.50196787 322.12908131 170.98196787 322.12908131 C170.98196787 332.02908131 170.98196787 341.92908131 170.98196787 352.12908131 C176.26196787 352.12908131 181.54196787 352.12908131 186.98196787 352.12908131 C187.31196787 362.35908131 187.64196787 372.58908131 187.98196787 383.12908131 C197.55196787 383.45908131 207.12196787 383.78908131 216.98196787 384.12908131 C216.98196787 373.56908131 216.98196787 363.00908131 216.98196787 352.12908131 C217.64196787 352.12908131 218.30196787 352.12908131 218.98196787 352.12908131 C218.98196787 357.40908131 218.98196787 362.68908131 218.98196787 368.12908131 C223.60196787 368.12908131 228.22196787 368.12908131 232.98196787 368.12908131 C232.98196787 358.22908131 232.98196787 348.32908131 232.98196787 338.12908131 C223.08196787 338.12908131 213.18196787 338.12908131 202.98196787 338.12908131 C202.98196787 348.68908131 202.98196787 359.24908131 202.98196787 370.12908131 C202.32196787 370.12908131 201.66196787 370.12908131 200.98196787 370.12908131 C200.98196787 359.56908131 200.98196787 349.00908131 200.98196787 338.12908131 C195.70196787 338.12908131 190.42196787 338.12908131 184.98196787 338.12908131 C184.98196787 337.46908131 184.98196787 336.80908131 184.98196787 336.12908131 C201.48196787 336.12908131 217.98196787 336.12908131 234.98196787 336.12908131 C234.98196787 341.40908131 234.98196787 346.68908131 234.98196787 352.12908131 C240.26196787 352.12908131 245.54196787 352.12908131 250.98196787 352.12908131 C250.98196787 352.78908131 250.98196787 353.44908131 250.98196787 354.12908131 C245.70196787 354.12908131 240.42196787 354.12908131 234.98196787 354.12908131 C234.98196787 359.40908131 234.98196787 364.68908131 234.98196787 370.12908131 C229.70196787 370.12908131 224.42196787 370.12908131 218.98196787 370.12908131 C218.98196787 385.96908131 218.98196787 401.80908131 218.98196787 418.12908131 C218.32196787 418.12908131 217.66196787 418.12908131 216.98196787 418.12908131 C216.98196787 407.56908131 216.98196787 397.00908131 216.98196787 386.12908131 C191.24196787 386.12908131 165.50196787 386.12908131 138.98196787 386.12908131 C138.98196787 391.40908131 138.98196787 396.68908131 138.98196787 402.12908131 C133.70196787 402.12908131 128.42196787 402.12908131 122.98196787 402.12908131 C122.98196787 417.30908131 122.98196787 432.48908131 122.98196787 448.12908131 C138.82196787 448.12908131 154.66196787 448.12908131 170.98196787 448.12908131 C170.98196787 453.40908131 170.98196787 458.68908131 170.98196787 464.12908131 C181.54196787 464.12908131 192.10196787 464.12908131 202.98196787 464.12908131 C202.98196787 469.40908131 202.98196787 474.68908131 202.98196787 480.12908131 C213.54196787 480.12908131 224.10196787 480.12908131 234.98196787 480.12908131 C234.98196787 480.78908131 234.98196787 481.44908131 234.98196787 482.12908131 C155.12196787 482.12908131 75.26196787 482.12908131 -7.01803213 482.12908131 C-7.05836348 361.46216616 -7.05836348 361.46216616 -7.06686026 311.19744068 C-7.06869081 300.42350805 -7.07056795 289.64957542 -7.07255813 278.87564281 C-7.07282797 277.41418446 -7.07309634 275.95272611 -7.07336322 274.49126776 C-7.07763389 251.17186053 -7.08514052 227.85245572 -7.09432935 204.53304995 C-7.10375221 180.57634413 -7.10991531 156.61963965 -7.11194712 132.66293201 C-7.1122353 129.28312262 -7.11256094 125.90331323 -7.11290938 122.52350384 C-7.1129768 121.85827588 -7.11304422 121.19304792 -7.11311369 120.50766154 C-7.11422428 110.4431227 -7.11822155 100.37858756 -7.12376219 90.31405026 C-7.13003719 78.87433664 -7.13300818 67.43462847 -7.13153351 55.99491311 C-7.1308898 50.15189063 -7.13191132 44.3088803 -7.13723761 38.46585995 C-7.14206991 33.12609746 -7.14237191 27.78635541 -7.13893103 22.44659203 C-7.13850517 20.50580604 -7.13980232 18.56501882 -7.14291532 16.62423528 C-7.14687649 14.00415931 -7.14479729 11.38415899 -7.14107996 8.7640844 C-7.14370698 7.99502126 -7.14633399 7.22595811 -7.14904061 6.43359002 C-7.1276624 -0.14666058 -6.50844116 0.01649194 0 0 Z " fill="#FEFEFE" transform="translate(7.018032133579254,-0.12908130884170532)"/>
<path d="M0 0 C79.86 0 159.72 0 242 0 C242 159.06 242 318.12 242 482 C167.42 482 92.84 482 16 482 C16 476.72 16 471.44 16 466 C5.44 466 -5.12 466 -16 466 C-16 460.72 -16 455.44 -16 450 C-26.56 450 -37.12 450 -48 450 C-48 444.72 -48 439.44 -48 434 C-63.84 434 -79.68 434 -96 434 C-96 428.06 -96 422.12 -96 416 C-90.72 416 -85.44 416 -80 416 C-80 410.72 -80 405.44 -80 400 C-63.5 400 -47 400 -30 400 C-30 410.56 -30 421.12 -30 432 C-20.1 432 -10.2 432 0 432 C0 416.16 0 400.32 0 384 C5.28 384 10.56 384 16 384 C16 378.72 16 373.44 16 368 C27.22 368 38.44 368 50 368 C50 373.28 50 378.56 50 384 C60.56 384 71.12 384 82 384 C82 384.66 82 385.32 82 386 C76.72 386 71.44 386 66 386 C66 395.9 66 405.8 66 416 C81.84 416 97.68 416 114 416 C114 416.66 114 417.32 114 418 C97.5 418 81 418 64 418 C64 407.44 64 396.88 64 386 C58.72 386 53.44 386 48 386 C48 380.72 48 375.44 48 370 C38.1 370 28.2 370 18 370 C18 374.62 18 379.24 18 384 C23.28 384 28.56 384 34 384 C34 384.66 34 385.32 34 386 C28.72 386 23.44 386 18 386 C18 391.28 18 396.56 18 402 C17.34 402 16.68 402 16 402 C16 396.72 16 391.44 16 386 C11.38 386 6.76 386 2 386 C2 395.9 2 405.8 2 416 C11.9 416 21.8 416 32 416 C32 410.72 32 405.44 32 400 C32.66 400 33.32 400 34 400 C34 415.84 34 431.68 34 448 C39.28 448 44.56 448 50 448 C50 453.28 50 458.56 50 464 C55.28 464 60.56 464 66 464 C66 464.66 66 465.32 66 466 C60.06 466 54.12 466 48 466 C48 460.72 48 455.44 48 450 C37.44 450 26.88 450 16 450 C16 449.34 16 448.68 16 448 C21.28 448 26.56 448 32 448 C32 438.1 32 428.2 32 418 C22.1 418 12.2 418 2 418 C2 422.62 2 427.24 2 432 C7.28 432 12.56 432 18 432 C18 432.66 18 433.32 18 434 C12.72 434 7.44 434 2 434 C2 439.28 2 444.56 2 450 C1.34 450 0.68 450 0 450 C0 444.72 0 439.44 0 434 C-10.56 434 -21.12 434 -32 434 C-32 423.44 -32 412.88 -32 402 C-47.18 402 -62.36 402 -78 402 C-78 407.28 -78 412.56 -78 418 C-83.28 418 -88.56 418 -94 418 C-94 422.62 -94 427.24 -94 432 C-84.1 432 -74.2 432 -64 432 C-64 426.72 -64 421.44 -64 416 C-58.06 416 -52.12 416 -46 416 C-46 416.66 -46 417.32 -46 418 C-51.28 418 -56.56 418 -62 418 C-62 422.62 -62 427.24 -62 432 C-56.72 432 -51.44 432 -46 432 C-46 437.28 -46 442.56 -46 448 C-35.44 448 -24.88 448 -14 448 C-14 453.28 -14 458.56 -14 464 C1.84 464 17.68 464 34 464 C34 464.66 34 465.32 34 466 C28.72 466 23.44 466 18 466 C18 470.62 18 475.24 18 480 C38.46 480 58.92 480 80 480 C80 470.1 80 460.2 80 450 C74.72 450 69.44 450 64 450 C64 449.34 64 448.68 64 448 C74.56 448 85.12 448 96 448 C96 443.38 96 438.76 96 434 C80.16 434 64.32 434 48 434 C48 422.78 48 411.56 48 400 C48.66 400 49.32 400 50 400 C50 410.56 50 421.12 50 432 C65.84 432 81.68 432 98 432 C98 437.94 98 443.88 98 450 C92.72 450 87.44 450 82 450 C82 459.9 82 469.8 82 480 C97.18 480 112.36 480 128 480 C128 474.72 128 469.44 128 464 C128.66 464 129.32 464 130 464 C130 469.28 130 474.56 130 480 C139.9 480 149.8 480 160 480 C160 474.72 160 469.44 160 464 C165.28 464 170.56 464 176 464 C176 458.72 176 453.44 176 448 C181.28 448 186.56 448 192 448 C192 432.82 192 417.64 192 402 C182.1 402 172.2 402 162 402 C162 407.28 162 412.56 162 418 C161.34 418 160.68 418 160 418 C160 412.72 160 407.44 160 402 C154.72 402 149.44 402 144 402 C144 401.34 144 400.68 144 400 C159.84 400 175.68 400 192 400 C192 379.54 192 359.08 192 338 C186.72 338 181.44 338 176 338 C176 337.34 176 336.68 176 336 C192.5 336 209 336 226 336 C226 341.94 226 347.88 226 354 C220.06 354 214.12 354 208 354 C208 353.34 208 352.68 208 352 C213.28 352 218.56 352 224 352 C224 347.38 224 342.76 224 338 C214.1 338 204.2 338 194 338 C194 347.9 194 357.8 194 368 C204.56 368 215.12 368 226 368 C226 379.22 226 390.44 226 402 C225.34 402 224.68 402 224 402 C224 391.44 224 380.88 224 370 C214.1 370 204.2 370 194 370 C194 396.4 194 422.8 194 450 C188.72 450 183.44 450 178 450 C178 455.28 178 460.56 178 466 C172.72 466 167.44 466 162 466 C162 470.62 162 475.24 162 480 C171.9 480 181.8 480 192 480 C192 474.72 192 469.44 192 464 C197.28 464 202.56 464 208 464 C208 453.44 208 442.88 208 432 C213.94 432 219.88 432 226 432 C226 432.66 226 433.32 226 434 C220.72 434 215.44 434 210 434 C210 444.56 210 455.12 210 466 C204.72 466 199.44 466 194 466 C194 470.62 194 475.24 194 480 C209.18 480 224.36 480 240 480 C240 470.1 240 460.2 240 450 C235.38 450 230.76 450 226 450 C226 455.28 226 460.56 226 466 C225.34 466 224.68 466 224 466 C224 460.06 224 454.12 224 448 C229.28 448 234.56 448 240 448 C240 438.1 240 428.2 240 418 C229.44 418 218.88 418 208 418 C208 406.78 208 395.56 208 384 C208.66 384 209.32 384 210 384 C210 394.56 210 405.12 210 416 C219.9 416 229.8 416 240 416 C240 384.98 240 353.96 240 322 C214.26 322 188.52 322 162 322 C162 331.9 162 341.8 162 352 C167.28 352 172.56 352 178 352 C178 363.22 178 374.44 178 386 C172.06 386 166.12 386 160 386 C160 385.34 160 384.68 160 384 C165.28 384 170.56 384 176 384 C176 374.1 176 364.2 176 354 C171.38 354 166.76 354 162 354 C162 359.28 162 364.56 162 370 C161.34 370 160.68 370 160 370 C160 364.72 160 359.44 160 354 C133.6 354 107.2 354 80 354 C80 353.34 80 352.68 80 352 C90.56 352 101.12 352 112 352 C112 341.44 112 330.88 112 320 C122.56 320 133.12 320 144 320 C144 309.44 144 298.88 144 288 C149.28 288 154.56 288 160 288 C160 283.38 160 278.76 160 274 C154.72 274 149.44 274 144 274 C144 268.72 144 263.44 144 258 C138.72 258 133.44 258 128 258 C128 257.34 128 256.68 128 256 C133.94 256 139.88 256 146 256 C146.33 260.95 146.66 265.9 147 271 C151.95 271.33 156.9 271.66 162 272 C162 277.94 162 283.88 162 290 C156.72 290 151.44 290 146 290 C146 305.84 146 321.68 146 338 C140.06 338 134.12 338 128 338 C128 337.34 128 336.68 128 336 C133.28 336 138.56 336 144 336 C144 331.38 144 326.76 144 322 C134.1 322 124.2 322 114 322 C114.33 331.57 114.66 341.14 115 351 C129.85 351.33 144.7 351.66 160 352 C160 336.16 160 320.32 160 304 C165.28 304 170.56 304 176 304 C176 293.44 176 282.88 176 272 C176.66 272 177.32 272 178 272 C178 282.56 178 293.12 178 304 C193.84 304 209.68 304 226 304 C226 304.66 226 305.32 226 306 C204.88 306 183.76 306 162 306 C162 310.62 162 315.24 162 320 C187.74 320 213.48 320 240 320 C240 288.98 240 257.96 240 226 C235.38 226 230.76 226 226 226 C226 231.28 226 236.56 226 242 C225.34 242 224.68 242 224 242 C224 236.72 224 231.44 224 226 C197.6 226 171.2 226 144 226 C144 220.72 144 215.44 144 210 C134.1 210 124.2 210 114 210 C114 215.28 114 220.56 114 226 C113.34 226 112.68 226 112 226 C112 220.72 112 215.44 112 210 C106.72 210 101.44 210 96 210 C96 209.34 96 208.68 96 208 C117.12 208 138.24 208 160 208 C160 202.72 160 197.44 160 192 C165.94 192 171.88 192 178 192 C178 192.66 178 193.32 178 194 C172.72 194 167.44 194 162 194 C162 199.28 162 204.56 162 210 C156.72 210 151.44 210 146 210 C146 214.62 146 219.24 146 224 C177.02 224 208.04 224 240 224 C240 214.1 240 204.2 240 194 C235.38 194 230.76 194 226 194 C226 199.28 226 204.56 226 210 C225.34 210 224.68 210 224 210 C224 204.72 224 199.44 224 194 C218.72 194 213.44 194 208 194 C208 188.06 208 182.12 208 176 C208.66 176 209.32 176 210 176 C210 181.28 210 186.56 210 192 C219.9 192 229.8 192 240 192 C240 160.98 240 129.96 240 98 C235.38 98 230.76 98 226 98 C226 113.84 226 129.68 226 146 C225.34 146 224.68 146 224 146 C224 140.72 224 135.44 224 130 C203.54 130 183.08 130 162 130 C162 145.18 162 160.36 162 176 C171.9 176 181.8 176 192 176 C192 170.72 192 165.44 192 160 C197.28 160 202.56 160 208 160 C208 155.38 208 150.76 208 146 C198.1 146 188.2 146 178 146 C178 151.28 178 156.56 178 162 C177.34 162 176.68 162 176 162 C176 156.06 176 150.12 176 144 C187.22 144 198.44 144 210 144 C210 149.28 210 154.56 210 160 C215.28 160 220.56 160 226 160 C226 165.94 226 171.88 226 178 C225.34 178 224.68 178 224 178 C224 172.72 224 167.44 224 162 C214.1 162 204.2 162 194 162 C194 177.18 194 192.36 194 208 C199.28 208 204.56 208 210 208 C210 208.66 210 209.32 210 210 C198.78 210 187.56 210 176 210 C176 209.34 176 208.68 176 208 C181.28 208 186.56 208 192 208 C192 198.1 192 188.2 192 178 C181.44 178 170.88 178 160 178 C160 162.16 160 146.32 160 130 C149.44 130 138.88 130 128 130 C128 124.72 128 119.44 128 114 C118.1 114 108.2 114 98 114 C98 119.28 98 124.56 98 130 C97.34 130 96.68 130 96 130 C96 124.72 96 119.44 96 114 C74.88 114 53.76 114 32 114 C32 113.34 32 112.68 32 112 C37.28 112 42.56 112 48 112 C48 102.1 48 92.2 48 82 C37.44 82 26.88 82 16 82 C16 81.34 16 80.68 16 80 C21.28 80 26.56 80 32 80 C32 70.1 32 60.2 32 50 C26.72 50 21.44 50 16 50 C16 49.34 16 48.68 16 48 C21.28 48 26.56 48 32 48 C32 38.1 32 28.2 32 18 C27.38 18 22.76 18 18 18 C18 23.28 18 28.56 18 34 C17.34 34 16.68 34 16 34 C16 28.06 16 22.12 16 16 C21.94 16 27.88 16 34 16 C34 37.12 34 58.24 34 80 C43.9 80 53.8 80 64 80 C64 69.44 64 58.88 64 48 C64.66 48 65.32 48 66 48 C66 63.84 66 79.68 66 96 C76.56 96 87.12 96 98 96 C98 96.66 98 97.32 98 98 C86.78 98 75.56 98 64 98 C64 92.72 64 87.44 64 82 C59.38 82 54.76 82 50 82 C50.33 91.57 50.66 101.14 51 111 C81.195 111.495 81.195 111.495 112 112 C112 96.82 112 81.64 112 66 C107.38 66 102.76 66 98 66 C98 71.28 98 76.56 98 82 C97.34 82 96.68 82 96 82 C96 76.06 96 70.12 96 64 C101.94 64 107.88 64 114 64 C114 74.56 114 85.12 114 96 C123.9 96 133.8 96 144 96 C144 90.72 144 85.44 144 80 C149.28 80 154.56 80 160 80 C160 70.1 160 60.2 160 50 C154.72 50 149.44 50 144 50 C144 44.72 144 39.44 144 34 C138.72 34 133.44 34 128 34 C128 28.72 128 23.44 128 18 C122.72 18 117.44 18 112 18 C112 17.34 112 16.68 112 16 C123.22 16 134.44 16 146 16 C146 16.66 146 17.32 146 18 C140.72 18 135.44 18 130 18 C130.33 22.29 130.66 26.58 131 31 C151.79 31.33 172.58 31.66 194 32 C194 32.66 194 33.32 194 34 C188.72 34 183.44 34 178 34 C178 49.84 178 65.68 178 82 C177.34 82 176.68 82 176 82 C176 66.16 176 50.32 176 34 C166.1 34 156.2 34 146 34 C146.33 38.62 146.66 43.24 147 48 C151.95 48 156.9 48 162 48 C162 59.22 162 70.44 162 82 C156.72 82 151.44 82 146 82 C146 86.62 146 91.24 146 96 C156.56 96 167.12 96 178 96 C178 101.28 178 106.56 178 112 C182.62 112 187.24 112 192 112 C192 90.88 192 69.76 192 48 C197.28 48 202.56 48 208 48 C208 42.72 208 37.44 208 32 C208.66 32 209.32 32 210 32 C210 37.94 210 43.88 210 50 C205.05 50.33 200.1 50.66 195 51 C194.67 71.13 194.34 91.26 194 112 C199.28 112 204.56 112 210 112 C210 112.66 210 113.32 210 114 C198.78 114 187.56 114 176 114 C176 108.72 176 103.44 176 98 C166.1 98 156.2 98 146 98 C146 103.28 146 108.56 146 114 C145.34 114 144.68 114 144 114 C144 108.72 144 103.44 144 98 C134.1 98 124.2 98 114 98 C114 102.62 114 107.24 114 112 C119.28 112 124.56 112 130 112 C130.33 117.28 130.66 122.56 131 128 C140.57 128 150.14 128 160 128 C160 122.72 160 117.44 160 112 C160.66 112 161.32 112 162 112 C162 117.28 162 122.56 162 128 C182.46 128 202.92 128 224 128 C224 118.1 224 108.2 224 98 C218.72 98 213.44 98 208 98 C208 86.78 208 75.56 208 64 C208.66 64 209.32 64 210 64 C210.33 74.23 210.66 84.46 211 95 C220.57 95.33 230.14 95.66 240 96 C240 64.98 240 33.96 240 2 C235.05 2.33 230.1 2.66 225 3 C219.90880351 3.0147773 214.84169053 2.98466169 209.75390625 2.87890625 C208.36287878 2.85450821 206.97184138 2.83067017 205.58079529 2.80735779 C201.97562063 2.74547701 198.37062897 2.67615594 194.765625 2.60510254 C191.0645356 2.53353338 187.3633197 2.46925265 183.66210938 2.40429688 C176.44126262 2.27652842 169.22061811 2.14019692 162 2 C162.33 6.29 162.66 10.58 163 15 C183.79 15.33 204.58 15.66 226 16 C226 37.78 226 59.56 226 82 C225.34 82 224.68 82 224 82 C224 60.88 224 39.76 224 18 C202.88 18 181.76 18 160 18 C160 12.72 160 7.44 160 2 C139.54 2 119.08 2 98 2 C98 12.56 98 23.12 98 34 C97.34 34 96.68 34 96 34 C96 23.44 96 12.88 96 2 C86.1 2 76.2 2 66 2 C66 7.28 66 12.56 66 18 C65.34 18 64.68 18 64 18 C64 12.72 64 7.44 64 2 C59.38 2 54.76 2 50 2 C50 11.9 50 21.8 50 32 C59.9 32 69.8 32 80 32 C80 26.72 80 21.44 80 16 C80.66 16 81.32 16 82 16 C82 26.56 82 37.12 82 48 C91.9 48 101.8 48 112 48 C112 42.72 112 37.44 112 32 C112.66 32 113.32 32 114 32 C114 37.28 114 42.56 114 48 C119.28 48 124.56 48 130 48 C130 53.28 130 58.56 130 64 C135.28 64 140.56 64 146 64 C146 64.66 146 65.32 146 66 C140.72 66 135.44 66 130 66 C130 71.28 130 76.56 130 82 C129.34 82 128.68 82 128 82 C127.67 71.77 127.34 61.54 127 51 C112.15 50.67 97.3 50.34 82 50 C82 60.56 82 71.12 82 82 C81.34 82 80.68 82 80 82 C80 66.16 80 50.32 80 34 C70.1 34 60.2 34 50 34 C50.36831259 43.78318478 50.36831259 43.78318478 50.74829102 53.56591797 C50.79139404 54.77908691 50.83449707 55.99225586 50.87890625 57.2421875 C50.9260376 58.4885498 50.97316895 59.73491211 51.02172852 61.01904297 C51 64 51 64 50 66 C49.34 66 48.68 66 48 66 C48 44.88 48 23.76 48 2 C32.16 2 16.32 2 0 2 C0 1.34 0 0.68 0 0 Z " fill="#FEFEFE" transform="translate(240,0)"/>
<path d="" fill="#FFFFFF" transform="translate(0,0)"/>
<path d="" fill="#FFFFFF" transform="translate(0,0)"/>
<path d="" fill="#FFFFFF" transform="translate(0,0)"/>
<path d="" fill="#FFFFFF" transform="translate(0,0)"/>
<path d="" fill="#FFFFFF" transform="translate(0,0)"/>
<path d="" fill="#FFFFFF" transform="translate(0,0)"/>
<path d="" fill="#FFFFFF" transform="translate(0,0)"/>
<path d="" fill="#FFFFFF" transform="translate(0,0)"/>
<path d="" fill="#FFFFFF" transform="translate(0,0)"/>
<path d="" fill="#FFFFFF" transform="translate(0,0)"/>
<path d="" fill="#FFFFFF" transform="translate(0,0)"/>
<path d="" fill="#FFFFFF" transform="translate(0,0)"/>
<path d="" fill="#FFFFFF" transform="translate(0,0)"/>
<path d="" fill="#FFFFFF" transform="translate(0,0)"/>
<path d="" fill="#FFFFFF" transform="translate(0,0)"/>
<path d="" fill="#FFFFFF" transform="translate(0,0)"/>
<path d="" fill="#FFFFFF" transform="translate(0,0)"/>
<path d="" fill="#FFFFFF" transform="translate(0,0)"/>
<path d="" fill="#FFFFFF" transform="translate(0,0)"/>
<path d="" fill="#FFFFFF" transform="translate(0,0)"/>
<path d="" fill="#FFFFFF" transform="translate(0,0)"/>
<path d="" fill="#FFFFFF" transform="translate(0,0)"/>
<path d="" fill="#FFFFFF" transform="translate(0,0)"/>
<path d="" fill="#FFFFFF" transform="translate(0,0)"/>
<path d="" fill="#FFFFFF" transform="translate(0,0)"/>
<path d="" fill="#FFFFFF" transform="translate(0,0)"/>
<path d="" fill="#FFFFFF" transform="translate(0,0)"/>
<path d="" fill="#FFFFFF" transform="translate(0,0)"/>
<path d="" fill="#FFFFFF" transform="translate(0,0)"/>
<path d="" fill="#FFFFFF" transform="translate(0,0)"/>
<path d="" fill="#FFFFFF" transform="translate(0,0)"/>
<path d="" fill="#FFFFFF" transform="translate(0,0)"/>
<path d="" fill="#FFFFFF" transform="translate(0,0)"/>
<path d="" fill="#FFFFFF" transform="translate(0,0)"/>
<path d="" fill="#FFFFFF" transform="translate(0,0)"/>
<path d="" fill="#FFFFFF" transform="translate(0,0)"/>
<path d="" fill="#FFFFFF" transform="translate(0,0)"/>
<path d="" fill="#FFFFFF" transform="translate(0,0)"/>
<path d="" fill="#FFFFFF" transform="translate(0,0)"/>
<path d="" fill="#FFFFFF" transform="translate(0,0)"/>
<path d="" fill="#FFFFFF" transform="translate(0,0)"/>
<path d="" fill="#FFFFFF" transform="translate(0,0)"/>
<path d="" fill="#FFFFFF" transform="translate(0,0)"/>
<path d="" fill="#FFFFFF" transform="translate(0,0)"/>
<path d="" fill="#FFFFFF" transform="translate(0,0)"/>
<path d="" fill="#FFFFFF" transform="translate(0,0)"/>
<path d="" fill="#FFFFFF" transform="translate(0,0)"/>
<path d="" fill="#FFFFFF" transform="translate(0,0)"/>
<path d="" fill="#FFFFFF" transform="translate(0,0)"/>
<path d="" fill="#FFFFFF" transform="translate(0,0)"/>
<path d="" fill="#FFFFFF" transform="translate(0,0)"/>
<path d="" fill="#FFFFFF" transform="translate(0,0)"/>
<path d="" fill="#FFFFFF" transform="translate(0,0)"/>
<path d="" fill="#FFFFFF" transform="translate(0,0)"/>
<path d="" fill="#FFFFFF" transform="translate(0,0)"/>
<path d="" fill="#FFFFFF" transform="translate(0,0)"/>
<path d="" fill="#FFFFFF" transform="translate(0,0)"/>
<path d="" fill="#FFFFFF" transform="translate(0,0)"/>
<path d="" fill="#FFFFFF" transform="translate(0,0)"/>
<path d="" fill="#FFFFFF" transform="translate(0,0)"/>
</svg>
